<svg width="160" height="65" fill="none" xmlns="http://www.w3.org/2000/svg"><path d="M9.68 26.058c3.172 0 5.052-.988 6.744-2.8l-2.303-2.471c-1.292 1.176-2.443 1.93-4.323 1.93-2.82 0-4.77-2.354-4.77-5.178 0-2.872 1.997-5.178 4.77-5.178 1.88 0 2.96.683 4.23 1.836l2.16-2.495c-1.526-1.506-3.265-2.683-6.367-2.683-5.051 0-8.576 3.836-8.576 8.52 0 4.777 3.595 8.52 8.435 8.52zm15.107 0c2.279 0 3.97-.894 5.145-2.353l-2.044-1.812c-.987.918-1.856 1.294-3.054 1.294-1.598 0-2.726-.847-3.078-2.471h8.764c.023-.33.047-.66.047-.942 0-3.577-1.927-6.848-6.133-6.848-3.665 0-6.226 2.965-6.226 6.566 0 3.907 2.796 6.566 6.579 6.566zm-3.078-7.578c.282-1.624 1.245-2.683 2.725-2.683 1.504 0 2.444 1.083 2.655 2.683h-5.38zm11.623 7.296h3.571v-4.66c0-3.012 1.457-4.448 3.83-4.448h.188v-3.742c-2.114-.094-3.29 1.035-4.018 2.777v-2.542h-3.571v12.615zm14.177.212c1.198 0 2.068-.283 2.82-.73v-2.871a3.628 3.628 0 01-1.763.447c-.799 0-1.151-.4-1.151-1.224v-5.39h2.96v-3.059h-2.96V9.937h-3.572v3.224H42.34v3.06h1.503v5.978c0 2.918 1.48 3.789 3.666 3.789zm5.673-14.215h3.76V8.596h-3.76v3.177zm.094 14.003h3.571V13.16h-3.571v12.615zM69.35 11.773h3.76V8.596h-3.76v3.177zm-8.435 14.003h3.572V16.22h2.843v-2.918h-2.89v-.495c0-.941.47-1.365 1.292-1.365.61 0 1.104.118 1.621.306V8.784c-.658-.212-1.41-.353-2.537-.353-1.27 0-2.233.33-2.89.988-.658.66-1.01 1.671-1.01 3.06v.8h-1.481v2.942h1.48v9.555zm8.53 0h3.57V13.16h-3.57v12.615zm12.969.282c2.514 0 3.924-.965 5.146-2.306l-2.092-2.118c-.869.823-1.691 1.341-2.89 1.341-1.95 0-3.195-1.553-3.195-3.483 0-1.906 1.269-3.483 3.054-3.483 1.41 0 2.162.518 2.938 1.247l2.09-2.118c-1.174-1.318-2.631-2.212-5.004-2.212-3.853 0-6.603 2.965-6.603 6.566 0 3.648 2.773 6.566 6.556 6.566zm11.153-.047c1.74 0 2.938-.635 3.807-1.6v1.365h3.454v-7.32c0-1.694-.423-3.082-1.363-4.024-.893-.894-2.303-1.412-4.253-1.412-2.138 0-3.5.4-4.887 1.012l.893 2.73c1.151-.424 2.115-.682 3.477-.682 1.786 0 2.702.823 2.702 2.306v.212a8.937 8.937 0 00-3.078-.518c-2.984 0-5.075 1.27-5.075 4.024 0 2.542 1.95 3.907 4.323 3.907zm1.081-2.471c-1.151 0-1.95-.565-1.95-1.53 0-1.176.94-1.788 2.467-1.788.87 0 1.669.188 2.28.47v.636c0 1.294-1.128 2.212-2.797 2.212zm13.495 2.448c1.198 0 2.067-.283 2.819-.73v-2.871a3.627 3.627 0 01-1.762.447c-.799 0-1.151-.4-1.151-1.224v-5.39h2.96v-3.059h-2.96V9.937h-3.572v3.224h-1.504v3.06h1.504v5.978c0 2.918 1.48 3.789 3.666 3.789zm5.673-14.215h3.759V8.596h-3.759v3.177zm.094 14.003h3.571V13.16h-3.571v12.615zm13.209.282c3.924 0 6.837-2.942 6.837-6.566 0-3.671-2.89-6.566-6.79-6.566-3.924 0-6.838 2.942-6.838 6.566 0 3.671 2.89 6.566 6.791 6.566zm.047-3.083c-1.974 0-3.313-1.624-3.313-3.483 0-1.906 1.222-3.483 3.266-3.483 1.974 0 3.313 1.624 3.313 3.483 0 1.906-1.222 3.483-3.266 3.483zm9.48 2.8h3.571V18.74c0-1.695.869-2.565 2.232-2.565 1.363 0 2.162.87 2.162 2.565v7.037h3.571V17.61c0-2.894-1.574-4.683-4.276-4.683-1.809 0-2.867.965-3.689 2.024v-1.789h-3.571v12.615zM3.021 58.276H20.61v-3.697H7.15v-6.321h11.78V44.56H7.15v-6.12h13.293v-3.698H3.02v23.535zm20.62 0h4.33l4.33-6.219 4.364 6.22h4.43l-6.544-9.111 6.276-8.64h-4.33l-4.095 5.85-4.095-5.85h-4.43l6.276 8.74-6.512 9.01zm35.541 0V47.753c0-4.74-2.55-7.497-7.787-7.497-2.887 0-4.8.605-6.747 1.48l1.108 3.26c1.611-.672 3.088-1.109 5.069-1.109 2.82 0 4.363 1.345 4.363 3.8v.336c-1.376-.438-2.752-.74-4.9-.74-4.13 0-7.184 1.883-7.184 5.816 0 3.631 2.954 5.548 6.31 5.548 2.686 0 4.532-1.11 5.74-2.556v2.186h4.028zm-3.927-6.42c0 2.218-2.014 3.731-4.7 3.731-1.912 0-3.423-.941-3.423-2.622 0-1.782 1.51-2.824 4.062-2.824 1.577 0 3.02.302 4.061.706v1.008zm8.906 6.42h4.061v-9.984c0-2.757 1.544-4.438 3.794-4.438 2.248 0 3.591 1.546 3.591 4.303v10.12h4.062v-10.02c0-2.857 1.577-4.404 3.793-4.404 2.282 0 3.591 1.514 3.591 4.338v10.086h4.062v-11.33c0-4.337-2.35-6.792-6.21-6.792-2.685 0-4.565 1.244-6.008 3.127-.94-1.883-2.72-3.127-5.27-3.127-2.72 0-4.263 1.48-5.404 3.06v-2.69H64.16v17.752zm38.118.337c3.692 0 6.579-1.85 6.579-5.581 0-3.261-2.92-4.438-5.505-5.245-.101-.034-.235-.067-.336-.1-1.946-.64-3.658-1.177-3.658-2.388 0-1.11.906-1.849 2.484-1.849 1.477 0 3.289.639 5.001 1.681l1.611-2.891c-1.88-1.244-4.296-2.017-6.512-2.017-3.524 0-6.31 2.05-6.31 5.412 0 3.463 2.92 4.54 5.538 5.313l.302.1c1.947.572 3.659 1.043 3.659 2.354 0 1.244-1.007 1.983-2.752 1.983-1.813 0-3.894-.74-5.807-2.185l-1.813 2.757c2.215 1.748 5.001 2.656 7.519 2.656z" fill="#20272A"/><path d="M143.216 44.618v1.056a11.495 11.495 0 01-2.283 6.872 11.465 11.465 0 01-5.934 4.138 11.449 11.449 0 01-7.225-.24 11.474 11.474 0 01-5.647-4.524 11.507 11.507 0 01.903-13.715 11.454 11.454 0 0113.386-3.03" stroke="#589245" stroke-width="4" stroke-linecap="round" stroke-linejoin="round"/><path d="M143.216 36.422L132.028 47.63l-3.357-3.358" stroke="#589245" stroke-width="4" stroke-linecap="round" stroke-linejoin="round"/></svg>