<svg width="34" height="34" fill="none" xmlns="http://www.w3.org/2000/svg"><path d="M21.48 3.12L22.927.443a.305.305 0 00-.113-.407.285.285 0 00-.222-.025.293.293 0 00-.174.142l-1.462 2.705A9.638 9.638 0 0017 2.01c-1.361 0-2.708.29-3.955.85L11.583.154a.293.293 0 00-.174-.142.285.285 0 00-.222.025.298.298 0 00-.138.18.306.306 0 00.025.227l1.445 2.675a8.43 8.43 0 00-3.36 3.097 8.732 8.732 0 00-1.298 4.438h18.278a8.73 8.73 0 00-1.298-4.438 8.43 8.43 0 00-3.36-3.097zm-8.698 4.103a.75.75 0 01-.424-.132.78.78 0 01-.281-.352.801.801 0 01.165-.853.745.745 0 01.832-.17c.14.06.259.16.342.289a.797.797 0 01-.095.988.754.754 0 01-.54.23zm8.436 0a.75.75 0 01-.424-.132.78.78 0 01-.281-.352.803.803 0 01.165-.853.745.745 0 01.832-.17c.14.06.259.16.343.289a.798.798 0 01-.096.988.754.754 0 01-.539.23zM7.861 24.988c0 .601.233 1.178.647 1.603a2.18 2.18 0 001.562.664h1.467v4.637a2.135 2.135 0 00.598 1.49c.19.196.416.351.665.457a2.004 2.004 0 002.236-.457c.19-.195.341-.428.444-.684.102-.255.155-.53.154-.806v-4.637h2.732v4.637c0 .277.052.55.154.806.103.256.254.489.444.684.19.196.416.351.665.457a2.004 2.004 0 002.236-.457 2.135 2.135 0 00.598-1.49v-4.637h1.467a2.18 2.18 0 001.562-.664 2.297 2.297 0 00.647-1.603V11.396H7.861v13.592zM5.049 11.036c-.543 0-1.064.222-1.448.616-.384.394-.6.928-.601 1.486v8.759a2.118 2.118 0 00.598 1.49c.19.196.417.351.665.457a2.004 2.004 0 002.237-.457 2.15 2.15 0 00.598-1.49v-8.76a2.135 2.135 0 00-.601-1.485 2.025 2.025 0 00-1.448-.616zm23.902 0c-.543 0-1.064.222-1.448.616-.384.394-.6.928-.6 1.486v8.759a2.14 2.14 0 00.598 1.49c.19.196.416.351.665.457a2.004 2.004 0 002.236-.457c.19-.196.341-.428.444-.684a2.15 2.15 0 00.154-.806v-8.76c0-.557-.217-1.09-.6-1.485a2.025 2.025 0 00-1.449-.616z" fill="#9BCD00"/></svg>