<svg width="34" height="34" fill="none" xmlns="http://www.w3.org/2000/svg"><path d="M22.058 5.423a7.424 7.424 0 001.46-2.532c.312-.93.436-1.913.363-2.891a7.665 7.665 0 00-5.158 2.584 7.067 7.067 0 00-1.399 2.454 7.013 7.013 0 00-.32 2.798 6.406 6.406 0 002.812-.624 6.331 6.331 0 002.242-1.79zm4.334 12.647a7.598 7.598 0 011.008-3.714 7.706 7.706 0 012.706-2.763 7.983 7.983 0 00-2.74-2.435 8.084 8.084 0 00-3.554-.965c-2.682-.272-5.158 1.547-6.585 1.547-1.428 0-3.44-1.513-5.675-1.479A8.531 8.531 0 007.42 9.484a8.406 8.406 0 00-2.985 3.078c-3.027 5.202-.774 12.936 2.252 17.135 1.376 2.057 3.095 4.386 5.365 4.3 2.27-.084 3.01-1.393 5.64-1.393s3.439 1.394 5.674 1.343c2.236-.051 3.818-2.108 5.262-4.165A18.609 18.609 0 0031 24.937a7.564 7.564 0 01-3.344-2.751 7.437 7.437 0 01-1.264-4.116z" fill="#F9F9F9"/></svg>