<svg width="34" height="34" fill="none" xmlns="http://www.w3.org/2000/svg"><path d="M17.018.932c8.917 0 15.97 7.044 15.97 15.943 0 8.899-7.054 15.942-15.97 15.942-8.915 0-15.97-7.043-15.97-15.942C1.048 7.976 8.103.932 17.018.932z" fill="#F2F2F2" stroke="#E5E5E5"/><path d="M18.684 11.49h.016v.577h.662V9.69c0-.172-.034-.328-.1-.467a1.016 1.016 0 00-.28-.358 1.306 1.306 0 00-.44-.228 1.91 1.91 0 00-.574-.08 1.78 1.78 0 00-.544.08c-.167.053-.31.128-.433.224s-.22.208-.292.338a.918.918 0 00-.113.425h.649a.56.56 0 01.237-.36.722.722 0 01.214-.1.962.962 0 01.263-.036c.232 0 .412.053.539.157.127.103.19.256.19.456v.268l-.937.054c-.43.027-.76.127-.986.299-.227.17-.34.408-.34.713 0 .155.028.296.086.423a.932.932 0 00.241.324c.103.09.226.158.37.207a1.459 1.459 0 001.13-.091c.094-.053.179-.118.255-.194a1.05 1.05 0 00.187-.253zm-.265-.161a.89.89 0 01-.288.163c-.11.039-.23.059-.358.059-.2 0-.36-.044-.48-.133a.419.419 0 01-.179-.355c0-.153.06-.273.181-.36.121-.085.3-.136.54-.15l.843-.059v.271a.72.72 0 01-.259.564zm4.844 7.743l-1.147-.286c-1.397-.352-1.97-.808-1.97-1.578 0-.976.911-1.651 2.227-1.651 1.324 0 2.213.668 2.316 1.754h1.492c-.058-1.805-1.587-3.06-3.778-3.06-2.242 0-3.815 1.248-3.815 3.046 0 1.46.889 2.349 2.845 2.833l1.36.337c1.396.352 2 .867 2 1.718 0 .983-.994 1.702-2.375 1.702-1.441 0-2.493-.72-2.61-1.806H18.3c.11 1.902 1.684 3.112 4 3.112 2.485 0 4.043-1.226 4.043-3.192 0-1.542-.896-2.4-3.08-2.929zm-7.586-7.004V9.706c0-.173-.027-.33-.08-.471a1.001 1.001 0 00-.229-.36 1.03 1.03 0 00-.358-.23 1.265 1.265 0 00-.465-.082 1.32 1.32 0 00-.353.046 1.124 1.124 0 00-.558.346 1.049 1.049 0 00-.175.28h-.017a.93.93 0 00-.357-.498 1.053 1.053 0 00-.615-.174 1.2 1.2 0 00-.323.043 1.033 1.033 0 00-.506.32.974.974 0 00-.159.262h-.013v-.587h-.662v3.466h.655V9.941c0-.113.057-.217.092-.312a.699.699 0 01.385-.413.785.785 0 01.573-.013.576.576 0 01.343.34c.03.081.046.171.046.271v2.254h.681V9.916c0-.11.019-.213.055-.306a.704.704 0 01.15-.241.669.669 0 01.229-.157.75.75 0 01.293-.056c.217 0 .385.062.501.187.118.124.176.3.176.528v2.197h.691zm-3.367 2.183c-3.036 0-4.94 2.113-4.94 5.475 0 3.361 1.904 5.467 4.94 5.467 3.036 0 4.933-2.107 4.933-5.467 0-3.362-1.897-5.475-4.933-5.475zm0 9.591c-2.08 0-3.382-1.592-3.382-4.117 0-2.532 1.301-4.125 3.382-4.125 2.073 0 3.382 1.593 3.381 4.125 0 2.524-1.308 4.117-3.381 4.117zm8.749-14.378a.843.843 0 01.674-.324.95.95 0 01.322.05.795.795 0 01.247.135c.07.058.127.126.17.204a.848.848 0 01.09.255h.66a1.312 1.312 0 00-.134-.472 1.271 1.271 0 00-.304-.39 1.443 1.443 0 00-.458-.267 1.719 1.719 0 00-.6-.099 1.71 1.71 0 00-.668.126c-.2.084-.37.204-.513.36a1.632 1.632 0 00-.33.56 2.133 2.133 0 00-.114.73c0 .276.039.522.116.742.078.22.188.405.331.558.143.153.315.271.516.353.2.082.423.123.671.123.209 0 .4-.03.576-.087a1.39 1.39 0 00.455-.244 1.274 1.274 0 00.464-.875h-.662a.744.744 0 01-.277.466c-.143.106-.327.159-.554.159a.888.888 0 01-.38-.082.823.823 0 01-.296-.234 1.082 1.082 0 01-.19-.375 1.713 1.713 0 01-.068-.502c0-.181.022-.345.068-.493a1.13 1.13 0 01.188-.377z" fill="#515151"/></svg>