<svg width="692" height="424" fill="none" xmlns="http://www.w3.org/2000/svg"><g clip-path="url(#clip0_63:868)"><path d="M38.694 424l220.665-1.147 58.81-.024h19.482l58.932-.024 269.246-.074s61.593-78.925-4.199-153.873c-68.208-77.706-101.361-14.419-122.331-123.816-52.78-275.323-574.502-115.058-437.67 119.254 49.29 84.365-96.99 39.523-62.935 159.704z" fill="#EBF3FA"/><path d="M241.685 366.544l-1.196-.658a2.644 2.644 0 01-1.05-3.562l5.493-10.003a2.646 2.646 0 013.564-1.049l1.709.927a.515.515 0 01.195.707.517.517 0 01-.708.196l-1.708-.927c-.782-.415-1.758-.147-2.173.634l-5.493 10.003c-.415.78-.146 1.756.635 2.171l1.196.659c.781.415 1.758.146 2.173-.635l3.637-6.636a.517.517 0 01.708-.195.516.516 0 01.195.708l-3.637 6.636c-.659 1.244-2.27 1.732-3.54 1.024z" fill="#AFCDFB"/><path d="M236.607 377.06l-2.148-1.171c-1.978-1.098-2.661-3.709-1.489-5.831l8.251-15.054a.518.518 0 01.708-.195.516.516 0 01.195.708l-8.251 15.053c-.903 1.635-.415 3.611 1.074 4.44l2.148 1.171c1.49.805 3.418.147 4.321-1.488l9.399-17.127c.904-1.634.415-3.611-1.074-4.44a.516.516 0 01-.195-.708.516.516 0 01.708-.195c1.977 1.098 2.661 3.709 1.489 5.831l-9.399 17.127c-1.196 2.123-3.759 2.952-5.737 1.879z" fill="#AFCDFB"/><path opacity=".6" d="M442.65 310.894H180.092c-6.445 0-11.694-5.221-11.694-11.686V78.998c0-6.44 5.225-11.686 11.694-11.686H442.65c6.445 0 11.693 5.221 11.693 11.686v220.234c0 6.441-5.224 11.662-11.693 11.662z" fill="#fff"/><path d="M454.344 94.345h-285.92V76.047c0-4.806 3.906-8.71 8.715-8.71h268.49c4.809 0 8.715 3.903 8.715 8.71v18.298z" fill="#699DEE"/><path d="M179.97 80.657c0-1.78 1.44-3.22 3.222-3.22a3.219 3.219 0 013.223 3.22 3.219 3.219 0 01-3.223 3.22c-1.758.025-3.222-1.439-3.222-3.22zm13.573 0c0-1.78 1.44-3.22 3.222-3.22a3.218 3.218 0 013.223 3.22c0 1.781-1.44 3.22-3.223 3.22-1.757.025-3.222-1.439-3.222-3.22zm13.573 0a3.219 3.219 0 013.223-3.22 3.218 3.218 0 013.222 3.22c0 1.781-1.44 3.22-3.222 3.22-1.758.025-3.223-1.439-3.223-3.22z" fill="#DDE7FE"/><path opacity=".5" d="M272.128 115.789h-81.05v80.999h81.05v-80.999z" fill="#CDE0FB"/><path opacity=".5" d="M358.645 121.816h-64.473a3.052 3.052 0 01-3.052-3.05 3.052 3.052 0 013.052-3.05h64.473a3.052 3.052 0 013.052 3.05 3.052 3.052 0 01-3.052 3.05zm77.096-4.099h-64.474a3.052 3.052 0 01-3.051-3.05 3.052 3.052 0 013.051-3.05h64.474a3.052 3.052 0 013.052 3.05 3.052 3.052 0 01-3.052 3.05z" fill="#7C9AF2"/><path opacity=".3" d="M371.39 145.383h-78.316a1.968 1.968 0 01-1.977-1.976c0-1.098.879-1.976 1.977-1.976h78.316c1.098 0 1.977.878 1.977 1.976.025 1.098-.879 1.976-1.977 1.976zm29.783 0h-20.677a1.968 1.968 0 01-1.977-1.976c0-1.098.878-1.976 1.977-1.976h20.677c1.099 0 1.978.878 1.978 1.976a1.969 1.969 0 01-1.978 1.976zm-78.535 12.321h-29.539a1.969 1.969 0 01-1.978-1.976 1.97 1.97 0 011.978-1.977h29.539a1.97 1.97 0 011.977 1.977 1.984 1.984 0 01-1.977 1.976zm47.849 0h-40.476a1.969 1.969 0 01-1.978-1.976 1.97 1.97 0 011.978-1.977h40.476a1.97 1.97 0 011.977 1.977c.025 1.073-.879 1.976-1.977 1.976zm30.686 0h-20.677a1.968 1.968 0 01-1.977-1.976c0-1.098.878-1.977 1.977-1.977h20.677a1.97 1.97 0 011.978 1.977 1.985 1.985 0 01-1.978 1.976zm-67.989 10.637h-40.085a1.969 1.969 0 01-1.978-1.976c0-1.098.879-1.976 1.978-1.976h40.085c1.099 0 1.977.878 1.977 1.976a1.984 1.984 0 01-1.977 1.976zm76.558 0H344.17a1.969 1.969 0 01-1.978-1.976c0-1.098.879-1.976 1.978-1.976h65.572c1.099 0 1.978.878 1.978 1.976a1.985 1.985 0 01-1.978 1.976zm-38.352 16.151h-78.316a1.968 1.968 0 01-1.977-1.976c0-1.098.879-1.976 1.977-1.976h78.316c1.098 0 1.977.878 1.977 1.976.025 1.073-.879 1.976-1.977 1.976zm29.783 0h-20.677a1.968 1.968 0 01-1.977-1.976c0-1.098.878-1.976 1.977-1.976h20.677c1.099 0 1.978.878 1.978 1.976a1.985 1.985 0 01-1.978 1.976zm-78.535 12.296h-29.539a1.969 1.969 0 01-1.978-1.976c0-1.098.879-1.976 1.978-1.976h29.539c1.098 0 1.977.878 1.977 1.976a1.968 1.968 0 01-1.977 1.976zm47.849 0h-40.476a1.969 1.969 0 01-1.978-1.976c0-1.098.879-1.976 1.978-1.976h40.476c1.098 0 1.977.878 1.977 1.976.025 1.098-.879 1.976-1.977 1.976z" fill="#BDD1F9"/><path d="M227.428 127.866h8.374l22.606 51.722h-9.545l-5.225-12.394h-24.315l-5.297 12.394h-9.253l22.655-51.722zm12.915 31.326l-8.887-20.542-8.813 20.542h17.7z" fill="#BDD1F9"/><path d="M236.364 213.11h-45.286v8.734h45.286v-8.734z" fill="#91B5F8"/><path d="M236.364 221.844h-45.286v8.735h45.286v-8.735z" fill="#699DEE"/><path d="M236.364 230.578h-45.286v8.735h45.286v-8.735zm33.347-12.54H244.81a1.88 1.88 0 010-3.757h24.901c1.05 0 1.88.854 1.88 1.879 0 1.049-.83 1.878-1.88 1.878zm-8.399 6.661h-16.527a1.88 1.88 0 01-1.88-1.879 1.88 1.88 0 011.88-1.878h16.527c1.05 0 1.88.853 1.88 1.878.025 1.025-.83 1.879-1.88 1.879z" fill="#BDD1F9"/><path d="M236.364 258.269h-45.286v17.859h45.286v-17.859z" fill="#AFCDFB"/><path d="M236.364 271.712h-45.286v12.76h45.286v-12.76z" fill="#699DEE"/><path d="M191.078 258.269l16.235 13.638-16.235 12.565v-26.203z" fill="#91B5F8"/><path d="M269.711 263.222H244.81a1.88 1.88 0 010-3.757h24.901c1.05 0 1.88.854 1.88 1.878a1.88 1.88 0 01-1.88 1.879zm-8.399 6.636h-16.527a1.88 1.88 0 01-1.88-1.878 1.88 1.88 0 011.88-1.879h16.527c1.05 0 1.88.854 1.88 1.879.025 1.049-.83 1.878-1.88 1.878z" fill="#BDD1F9"/><path d="M457.224 89.367s1.172 14.053-2.026 13.833c-3.198-.219-9.521-6.392-22.289-5.392s-28.367 3.806-37.79-12.881c-9.424-16.688 12.059-21.494 12.059-21.494l50.046 25.934z" fill="#233862"/><path d="M430.102 88.342l64.303 5.295 1.318-2.88-61.617-45.451-62.253-7.27-1.196 2.561 59.445 47.745z" fill="#2B478B"/><path d="M473.874 136.722c-.391-1.317-1.758-2.098-3.076-1.708-1.318.391-2.1 1.757-1.709 3.074a2.476 2.476 0 003.076 1.708c1.318-.366 2.075-1.756 1.709-3.074z" fill="#589245"/><path d="M471.725 137.405c2.588-.195 3.174 23.251 3.174 23.251s-1.685.781-2.515.61c-.83-.195-1.245-3.343-1.245-3.343l-.073 3.319s-2.832.097-3.808-.586c0-.024.39-22.933 4.467-23.251z" fill="#589245"/><path d="M472.556 137.942l-.464-51.21-.342-.268-33.567-24.812-1.197 1.634 33.226 24.568.757 49.99 1.587.098z" fill="#589245"/><path d="M515.888 379.621H374.661v-53.625h141.691c11.45 0 20.726 9.271 20.726 20.714v11.71c0 11.711-9.472 21.201-21.19 21.201z" fill="#FCECDB"/><path d="M658.238 348.051v8.076c0 4.318-1.074 8.344-2.979 11.808-3.808 6.978-10.888 11.686-18.993 11.686H370.315c-1.757 0-3.173-1.537-3.173-3.415v-1.22c0-1.879 1.416-3.416 3.173-3.416h162.124a19.99 19.99 0 002.271-3.659c1.513-3.05 2.368-6.539 2.368-10.247v-10.247c0-1.879-.22-3.708-.659-5.465-.733-2.952-2.027-5.66-3.76-7.953H370.291c-1.758 0-3.174-1.538-3.174-3.416v-1.196c0-1.878 1.416-3.415 3.174-3.415h267.294c9.423 0 17.357 6.758 19.823 15.98.561 1.952.83 4.001.83 6.099z" fill="#699DEE"/><path d="M657.432 341.977H536.419c-.733-2.952-2.027-5.66-3.76-7.954H370.291c-1.758 0-3.174-1.537-3.174-3.415v-1.196c0-1.878 1.416-3.415 3.174-3.415h267.294c9.447 0 17.381 6.758 19.847 15.98z" fill="#548EE2"/><path d="M374.661 352.809l19.701.902-19.701.537v-1.439zm0 8.392l46.848.903-46.848.561v-1.464z" fill="#F4D2B8"/><path d="M354.032 421.219h138.615v-41.72h-139.86c-10.375 0-18.798 8.417-18.798 18.786v2.904c0 11.051 8.984 20.03 20.043 20.03z" fill="#589245"/><path d="M485.982 421.219h157.999v-41.72H485.543c-10.571 0-19.115 8.564-19.115 19.103v3.05c0 10.808 8.739 19.567 19.554 19.567z" fill="#FCECDB"/><path d="M455.979 421.219h193.324a2.896 2.896 0 002.905-2.904v-.439a2.896 2.896 0 00-2.905-2.903H455.979a2.896 2.896 0 00-2.905 2.903v.439a2.912 2.912 0 002.905 2.904zm0-35.474h193.324a2.896 2.896 0 002.905-2.903v-.439a2.896 2.896 0 00-2.905-2.904H455.979a2.896 2.896 0 00-2.905 2.904v.439a2.91 2.91 0 002.905 2.903z" fill="#589245"/><path d="M643.98 400.359l-21.532.683 21.532.439v-1.122zm0-9.613l-51.217.708 51.217.415v-1.123z" fill="#F4D2B8"/><path d="M593.3 391.308s2.197 1.781 2.929 4.733c.122.512.22 1.073.22 1.659.122 3.903 0 12.759 0 12.759l6.469-4.44 6.47 4.44v-12.003c0-2.269-.562-4.489-1.587-5.929-.488-.707-1.099-1.219-1.782-1.219H593.3z" fill="#699DEE"/><path d="M593.3 391.308s2.197 1.781 2.929 4.733l12.988.17s-.513-4.22-3.198-4.903H593.3z" fill="#568CDB"/><path d="M475.46 326.094H339.018v-61.286h136.954c12.109 0 21.923 9.808 21.923 21.909v16.956c0 12.393-10.034 22.421-22.435 22.421z" fill="#FCECDB"/><path d="M497.969 288.596v13.199c-.025 5.635-2.637 10.515-6.494 13.125-1.88 1.294-4.077 2.025-6.396 2.025H334.844c-1.758 0-3.198 1.708-3.198 3.806v1.562c0 2.098 1.415 3.806 3.198 3.806h259.554c7.446 0 14.038-4.416 18.017-11.174 2.514-4.27 3.979-9.442 3.979-15.053v-10.418c0-3.83-.732-7.465-2.051-10.71-3.344-8.247-10.399-13.931-18.602-13.931H334.844c-1.758 0-3.198 1.708-3.198 3.806v1.561c0 2.098 1.415 3.806 3.198 3.806h150.699c3.613 0 6.86 1.83 9.13 4.758 2.026 2.586 3.271 6.026 3.296 9.832z" fill="#AFCDFB"/><path d="M331.646 320.751v1.561c0 2.098 1.415 3.806 3.198 3.806h259.555c7.445 0 14.037-4.416 18.016-11.174H491.499c-1.879 1.293-4.077 2.025-6.396 2.025H334.868c-1.782-.024-3.222 1.659-3.222 3.782z" fill="#A4C4F4"/><path d="M339.018 295.451l19.261 1.049-19.261.61v-1.659zm0-14.102l45.822 1.049-45.822.61v-1.659z" fill="#F4D2B8"/><path d="M384.377 282.179s-3.028 1.951-4.029 5.148a7.031 7.031 0 00-.317 1.781c-.171 4.245 0 13.857 0 13.857l-8.935-4.806-8.91 4.806v-13.028c0-2.464.756-4.855 2.172-6.416.684-.757 1.514-1.342 2.466-1.342h17.553z" fill="#6FA95C"/><path d="M384.377 282.179s-3.028 1.951-4.028 5.148l-17.895.195s.708-4.563 4.394-5.319h17.529v-.024z" fill="#589245"/><path d="M156.29 320.678s27.977 12.174 33.055 11.954c5.077-.219 36.35-9.515 36.35-9.515l-.806 5.368s-24.144 13.882-32.591 14.662c-8.3.781-36.716-7.441-39.475-9.197-2.758-1.757-4.492-11.516 3.467-13.272z" fill="#ED985F"/><path d="M152.091 275.884s-10.327-1.952-15.454 1.781c-9.301 6.783-9.814 30.204-13.305 33.693-3.491 3.489-11.889 2-12.645 20.054-.757 18.054 3.344 19.567-1.538 27.618-4.883 8.051 2.075 16.127 2.075 16.127s-2.832-4.441-1.636-7.661c0 0 1.172 7.075 5.688 8.759 4.517 1.659 5.176 2.878 5.884 5.318 0 0 38.425-19.688 38.474-33.644.049-13.955 7.568-27.788 3.882-33.839 0 0 1.635 2.586 1.855 5.465 0 0 2.222-4.245-1.636-8.197-3.832-3.952 4.517-12.126 3.272-21.592-.83-6.489-5.396-13.613-14.916-13.882z" fill="#233862"/><path d="M159.707 333.974c-2.466 1.708-5.542 3.099-9.399 4.001-14.501 3.343-20.042-8.905-22.142-17.297 1.977-1.123 3.833-1.391 4.907-1.513a51.055 51.055 0 013.052-.244c1.635-1.244 4.052-6.343 4.589-14.272l.684.17 11.425 3.123s-.513 3.636-.781 7.051c-.196 2.684-.22 5.246.268 5.88.903.195 1.416.317 1.416.317.195.293 3.491 5.733 5.981 12.784z" fill="#FFB27D"/><path d="M152.823 307.967s-.538 3.635-.782 7.05c-6.469-.658-9.472-6.806-10.644-10.173l11.426 3.123z" fill="#ED985F"/><path d="M154.751 311.382s-15.355-.854-14.696-10.393c.683-9.564-.855-16.102 8.984-15.956 9.838.147 11.474 3.928 12.035 7.149.562 3.244-2.295 19.176-6.323 19.2z" fill="#FFB27D"/><path d="M161.001 286.839c-2.172-3.05-4.003-2.538-5.077-1.757-8.057-5.197-13.94 1.22-13.94 1.22-1.514 6.782-6.738 10.344-6.738 10.344s2.661 1.928 9.228.732c2.002-.366 3.857-1.634 5.468-3.22-2.929 4.172-6.689 7.075-6.689 7.075 7.959-3.001 11.816-13.492 12.207-14.59.879.903 2.587 2.855 3.027 4.685.586 2.488 3.125 6.367 4.614 6.319 0 0 1.172-6.246-2.1-10.808z" fill="#233862"/><path d="M123.796 365.203c-1.391-7.076-5.908-35.401-1.391-44.501 1.635-3.269 8.007-3.562 14.989-3.269 2.173 1.415 10.473 6.709 13.866 6.05.025 0 .098-.024.196-.048 1.611-.391 2.221-1.537.879-2.489 0 0 3.466-.342 7.763.464 2.441.463 8.984 3.854 8.984 3.854s-3.296 5.953-8.154 8.003c.83 7.392-.415 10.661-8.081 27.739-6.494 14.443.879 27.447.879 27.447s-38.206 30.692-38.401 15.053c-.195-11.784 10.229-29.252 8.471-38.303z" fill="#F9DDBF"/><path d="M155.606 421.804c2.075-.244 3.955-1.366 5.102-3.098.195-.269.391-.561.586-.879 4.345-6.587 6.03-26.715 15.819-48.184 2.393-5.221 10.937-6.173 13.256-12.077 0 0 5.737-19.152-10.985-19.713-16.723-.561-44.773 53.259-45.237 58.92-.415 5.44-11.034 28.691 21.459 25.031z" fill="#387823"/><path d="M222.057 421.365h-23.802s-.879-3.782.684-6.368c1.391-2.293.854-3.586-.171-5.465 1.074.44 2.465.854 4.003.757 1.197-.074 2.442-.61 3.54-1.245 1.026 1.171 5.42 6.124 6.787 7.124 1.538 1.098 8.471.684 8.959 5.197z" fill="#233862"/><path d="M190.931 343.367c1.44 10.735 7.031 44.623 16.893 61.164 3.174 5.319-8.007 8.32-8.08 8.295-1.514-.39-4.004-2.781-5.151-3.83-8.008-7.222-24.291-27.667-24.291-44.037 0-8.003-.146-23.251 5.664-27.13 3.588-2.367 14.379 1.293 14.965 5.538z" fill="#387823"/><path d="M141.398 421.365s.879-1.22 2.417-3.562c1.831-2.781 3.857-8.222 6.323-15.224 2.588-7.343 5.639-16.37 9.472-25.763a241.119 241.119 0 013.76-8.759c2.392-5.221 8.935-4.513 11.254-10.418 0 0 9.106-20.469-7.617-21.03-16.723-.561-48.508 54.772-50.314 60.139-2.002 5.88-11.743 30.228 24.705 24.617z" fill="#589245"/><path d="M204.578 421.365h-23.802s-.879-3.782.683-6.368c1.392-2.293.855-3.586-.171-5.465 1.074.44 2.466.854 4.004.757 1.196-.074 2.441-.61 3.54-1.245 1.025 1.171 5.419 6.124 6.787 7.124 1.562 1.098 8.495.684 8.959 5.197z" fill="#2B478B"/><path d="M150.137 402.579c2.588-7.343 5.64-16.37 9.472-25.763-1.001-7.124-3.149-13.346-6.786-15.858 0 .024-8.789 27.251-2.686 41.621z" fill="#6FA95C"/><path d="M177.016 342.611c1.44 10.735 3.442 45.379 13.329 61.92 3.174 5.319-8.007 8.319-8.08 8.295-1.514-.39-4.004-2.781-5.151-3.83-8.008-7.222-24.291-27.667-24.291-44.037 0-8.003 9.375-22.617 15.209-26.496 3.565-2.366 8.423-.122 8.984 4.148z" fill="#589245"/><path d="M157.632 305.893s-1.44-.586-5.541-.244c0 0 .22 1.586 3.222 1.756 1.709.074 2.319-1.512 2.319-1.512z" fill="#fff"/><path d="M228.697 311.87l-4.931-8.905-10.693 29.765 6.299 6.758 9.325-27.618z" fill="#163560"/><path d="M202.917 317.067l-9.911 28.325 26.365-5.904 9.326-27.618-25.78 5.197z" fill="#1C468A"/><path d="M193.519 343.977l-.464-.805 9.399-26.813.463.708-9.398 26.91z" fill="#EFDECE"/><path d="M202.453 316.359l24.999-4.855 1.245.366-25.78 5.197-.464-.708z" fill="#FCECDB"/><path d="M228.697 311.87l-5.347-8.466-3.393 9.54 7.495-1.44 1.245.366z" fill="#EFDECE"/><path d="M210.534 321.166c-.854-.171-2.709-.854-4.565-1.367.562-.439 1.172-.951 1.343-1.512.342-1.049.561-1.391-.562-1.049-1.098.341-4.98 2.098-4.98 2.098-2.197.634-4.223 3.757-4.223 3.757s-27.269 9.588-30.54 9.734c-5.078.244-38.865-12.174-38.865-12.174-7.983 1.757-6.177 11.54-3.442 13.297 2.734 1.732 27.049 10.564 41.452 10.734 7.3.074 33.836-16.956 33.836-16.956s3.101-1.415 5.542-.976c2.441.44 8.08 0 9.301-2 1.245-1.976-2.856-3.294-4.297-3.586z" fill="#FFB27D"/><path d="M145.573 326.801s-3.028 9.564-13.403 11.735c0 0-17.138-5.269-8.593-16.931-.025 0 8.422-6.27 21.996 5.196z" fill="#F9DDBF"/><path d="M228.259 321.897c0-.268-.025-.512-.098-.78 0 0-2.441-3.855-3.247-4.026-2.441-.488-2.441 2.733-1.929 4.806.367 1.44 1.27 2.83 2.027 3.562l-.098 3.026c4.126-2.245 3.345-6.588 3.345-6.588z" fill="#FFB27D"/><path d="M85.078 271.444c.977-24.105-19.237-34.791-39.89-34.791-20.653 0-43.137 5.343-45.09 37.377-1.245 20.616 9.74 33.302 41.404 33.302 10.668 0 18.968-1.683 25.34-4.684l15.82 14.053-7.788-19.42c6.884-6.417 9.79-15.444 10.204-25.837z" fill="#EBF3FA"/><path d="M29.491 263.393v5.635h3.686v-5.635h1.49v13.125h-1.49v-6.123h-3.686v6.123h-1.489v-13.125h1.49zm8.373 8.539c0 2.903 1.148 3.513 2.222 3.513.659 0 1.196-.146 1.562-.342l.244 1.098c-.537.269-1.318.439-2.075.439-2.27 0-3.418-1.854-3.418-4.733 0-3.049 1.294-4.952 3.198-4.952 1.905 0 2.686 2.025 2.686 4.123 0 .366-.025.634-.049.854h-4.37zm2.979-1.098c.024-1.879-.684-2.708-1.392-2.708-1 0-1.49 1.415-1.538 2.708h2.93zm3.052-7.807h1.489v13.467h-1.49v-13.467zm3.71 0h1.49v13.467h-1.49v-13.467zm9.522 8.783c0 3.635-1.685 4.879-3.15 4.879-1.684 0-3.051-1.537-3.051-4.855 0-3.415 1.538-4.879 3.149-4.879 1.709 0 3.052 1.561 3.052 4.855zm-4.688 0c0 1.561.269 3.684 1.636 3.684 1.294 0 1.562-2.196 1.562-3.684 0-1.44-.268-3.66-1.586-3.66-1.367 0-1.612 2.22-1.612 3.66z" fill="#91B5F8"/><path d="M493.062 315.359c4.492 7.929 10.18 11.003 10.18 11.003l23.753.171c-.024 0-37.351-17.225-33.933-11.174z" fill="#233862"/><path d="M510.859 376.547c.611.708.684 1.513.366 2.342-.586 1.562-2.465 3.294-4.638 5.026-.269.22-.537.415-.732.61-.049.049-.122.098-.171.146-.049.049-.098.074-.122.122-2.051 1.855-1.27 2.294-4.956 6.051-4.175 4.294-7.031 4.343-7.861 3.952-.684-.341.732-2.61 2.295-5.172l.22-.366c.219-.341.415-.683.634-1.025 1.831-3.074 1.392-4.537.977-9.149-.318-3.757-5.688-20.957-5.688-20.957l7.958-1.317s2.295 13.687 4.931 15.834c1.416 1.122 2.979 1.146 4.346 2 .098.049.195.122.293.171.757.488 1.538 1.025 2.148 1.732z" fill="#FFB27D"/><path d="M510.859 376.547c.61.708.684 1.513.366 2.342-.708 1.562-2.539 3.294-4.663 5.002-.268.219-.512.439-.732.634-.049.049-.122.098-.171.146-.049.049-.098.074-.122.122-2.051 1.855-1.269 2.294-4.956 6.051-4.174 4.294-7.031 4.343-7.861 3.952-.683-.341.733-2.61 2.295-5.172.806-.293 4.565-1.781 7.446-5.392 2.515-3.171 4.223-7.246 5.932-9.612.098.049.196.122.293.171.781.512 1.563 1.049 2.173 1.756z" fill="#233862"/><path d="M446.751 371.131c-.512 2.44-4.003 2.025-7.909 1.025-3.907-.976-2.979.171-8.545-.488s-7.226-2.733-7.397-3.562c-.146-.732 2.612-.976 5.566-1.293.366-.049.733-.073 1.123-.122 3.345-.391 5.786-2.513 8.837-4.27 2.881-1.659 7.202-8.417 7.202-8.417l7.641.659s-4.052 6.05-5.615 8.685c-.927 1.537-.878 3.611-.781 5.197 0 .829.049 1.732-.122 2.586z" fill="#FFB27D"/><path d="M438.842 372.156c-3.906-.976-2.979.171-8.545-.488s-7.226-2.733-7.397-3.562c-.146-.732 2.612-.976 5.566-1.293l.025.049s3.32 2.39 7.958 2.537c3.784.122 7.788-.927 10.4-.878.049.853.098 1.756-.073 2.61-.537 2.44-4.028 2.025-7.934 1.025zm37.498-49.6l7.006 19.25 9.131 25.129s2.514.268 4.955-.415c2.222-.634 4.81-2.293 4.81-2.293s-2.393-26.911-7.105-42.403c-1.22-3.977-2.563-7.197-4.076-9.002-7.446-8.905-14.721 9.734-14.721 9.734z" fill="#233862"/><path d="M483.809 292.133c4.687-1.464 18.017.561 31.37 3.269l2.832-4.611 28.953-2.05s9.399 21.226 4.077 34.669c-.781 1.976-2.685 2.806-5.297 2.83 0 0-17.26.293-22.85.268-14.379-.097-30.37-10.1-32.445-10.539-3.393-.708-4.809 6.075-8.251 13.199-3.442 7.124-32.2 31.375-32.2 31.375s-4.395.024-6.201-.683c-1.953-.757-2.661-1.708-2.661-1.708s32.102-62.701 42.673-66.019z" fill="#2B478B"/><path d="M518.476 250.975c10.253 5.733 31.077 17.639 31.199 17.566 0 0 7.666 2.952 12.036.073 7.299-4.758 11.278-17.713-1.929-28.984-6.591-5.612-11.278-7.002-11.938-15.907-.341-4.831-6.835-20.787-17.821-19.396-.928.122-1.831.195-2.758.171a10.318 10.318 0 00-5.567 1.39c-6.225 3.684-18.651 42.793-3.222 45.087z" fill="#233862"/><path d="M527.143 246.217c-.049.025 5.053 1.805 8.495.317 3.223-1.39 5.713-6.66 5.664-6.685-1.465-.073-3.052-1.366-4.248-9.758l-.635.219-10.497 3.684s.732 3.367 1.196 6.563c.415 2.708.61 5.294.025 5.66z" fill="#FFB27D"/><path d="M525.922 234.018s.439 2.367 1.074 5.734c6.03-1.049 8.569-6.173 9.423-9.418l-10.497 3.684z" fill="#ED975D"/><path d="M524.335 237.337s14.355-1.83 13.085-10.735c-1.269-8.905-.268-15.151-9.496-14.37-9.204.78-10.498 4.44-10.815 7.514-.293 3.074 3.466 17.835 7.226 17.591z" fill="#FFB27D"/><path d="M517.67 214.867s9.13 7.978 15.355 8.661c6.25.683 8.618-1.293 8.618-1.293s-3.662-3.074-5.835-8.027a4.342 4.342 0 00-3.588-2.611c-4.468-.414-12.914-.658-14.55 3.27z" fill="#233862"/><path d="M523.407 214.208s-3.101 2.952-4.077 5.148c-.952 2.122-1.27 7.197-.537 9.222 0 0-4.712-9.32-1.978-13.833 2.93-4.782 6.592-.537 6.592-.537z" fill="#233862"/><path d="M514.935 267.247c.22 29.009-.048 22.934 3.101 25.715.757.659 2.905 1.074 5.737 1.293 8.886.659 24.535-.707 25.145-2.342 2.099-5.66.659-7.441 2.441-16.151.195-.927.415-1.927.684-3.025 1.464-5.977 2.88-8.002-2.124-17.639-4.541-8.735-9.253-15.834-9.692-15.59-12.182 7.099-13.11 1.049-13.11 1.049s-12.304 12.54-12.182 26.69z" fill="#F9DDBF"/><path d="M483.346 341.806l9.13 25.129s2.514.268 4.956-.415c2.221-.634 4.809-2.293 4.809-2.293s-2.392-26.911-7.104-42.403l-11.791 19.982z" fill="#2B478B"/><path d="M527.118 240.581s-12.475 2.025-13.989 7.393a99702.18 99702.18 0 00-10.351 36.84s6.323 1.171 9.277-1.733C515.009 280.178 522.43 256 522.43 256l4.688-15.419z" fill="#F9DDBF"/><path d="M523.773 294.231c8.887.659 24.535-.708 25.145-2.342 2.1-5.66.66-7.441 2.442-16.151l-4.199-12.101s.61 13.443-3.369 16.956-16.308 6.709-18.236 9.661c-.977 1.415-1.587 2.83-1.783 3.977z" fill="#F2CCAA"/><path d="M534.026 288.644s-8.764-2.025-10.18-1.244c-1.416.78-4.907 3.586-5.346 4.562-.439.976 3.149-.732 4.321-1.025.757-.195 2.734.513 3.735.854 4.126 1.415 6.689.708 6.689.708l.781-3.855z" fill="#FFB27D"/><path d="M540.252 239.508s11.791.805 15.819 6.514c5.688 8.051 16.845 42.256 10.278 46.745-7.397 5.075-33.47 1.098-33.47 1.098s-.83-4.074.391-6.026c1.22-1.952 20.897-4.977 21.8-5.88.904-.903-11.205-17.761-11.181-20.469 0-2.684-3.637-21.982-3.637-21.982z" fill="#F9DDBF"/><path d="M523.383 289.839s-1.856 2.367-2.466 2.635c-.61.269-1.001.195-1.001.195l1.245-2.22 2.222-.61zm.439-2.439l-5.371 2.561s.22.366.879.342c.659-.024 2.319-.61 2.319-.61l2.173-2.293z" fill="#FFB27D"/><path d="M522.064 296.305l-42.307-.293-12.499-31.717 42.234.293 12.572 31.717z" fill="#589245"/><path d="M479.269 294.768l55.88.39-.024 1.244-55.368-.39-.488-1.244z" fill="#589245"/><path d="M490.548 280.276c-.318-1.123.341-2.001 1.44-2.001 1.123 0 2.27.927 2.588 2.025.317 1.122-.342 2.001-1.441 2.001-1.123 0-2.27-.903-2.587-2.025z" fill="#fff"/><path d="M264.982 396.102l-.005 25.544 128.532.025.005-25.544-128.532-.025z" fill="#BDD1F9"/><path d="M264.975 421.633l-18.896-8.075-10.985-4.709 11.254-4.806 18.627-7.954s2.49 6.222 2.514 12.077c.073 9.173-2.514 13.467-2.514 13.467zm143.472-17.029v8.076c0 4.977-4.028 9.002-9.008 8.978h-5.957v-25.544h6.47c4.711.024 8.495 3.806 8.495 8.49z" fill="#FCECDB"/><path d="M246.348 404.067c.464 2.586.879 6.539-.269 9.491l-10.985-4.709 11.254-4.782z" fill="#2B478B"/><path d="M292.609 263.149s2.295 9.978 9.009 9.978c5.761 0 13.646-13.004 13.646-13.004l-22.655 3.026z" fill="#589245"/><path d="M369.656 410.606l-4.321 2.952s-20.726-22.08-25.731-43.256c-.903-3.782-1.245-7.515-.879-11.052 0 0-.293-.952-.83-2.66l-.073-.219c-.22-.732-.513-1.61-.83-2.611-1.001-3.196-2.392-7.587-3.955-12.564-3.613-11.467-11.913-37.353-15.453-48.112l25.462-9.198s2.881 6.588 7.056 24.495a158.95 158.95 0 011.879 7.734 140.532 140.532 0 011.831 10.442c.904 6.392 1.489 13.565 1.538 21.445.025 3.197-.073 6.539-.244 9.955-.146 2.512.244 5.855.928 9.685 3.198 17.444 13.622 42.964 13.622 42.964z" fill="#2B478B"/><path d="M383.229 421.243h-20.58s-.781-3.269.586-5.514c1.196-1.976.732-3.098-.147-4.733.928.391 2.149.732 3.467.659 1.025-.049 2.099-.512 3.052-1.074.878 1.001 4.687 5.295 5.859 6.148 1.342.976 7.348.635 7.763 4.514zm-29.417-94.661l-15.99 29.789c-.22-.732-.513-1.61-.83-2.611-1.001-3.196-2.392-7.587-3.955-12.564-3.613-11.467-11.913-37.353-15.453-48.112l25.462-9.198s2.881 6.588 7.056 24.495a158.95 158.95 0 011.879 7.734 143.64 143.64 0 011.831 10.467zm-36.643 88.22s-1.416 3.489-.073 6.441h11.205s.244-2.659-3.832-5.733c-3.076-2.342-7.3-.708-7.3-.708z" fill="#233862"/><path d="M329.375 187.395c0-.561.293-6.563 9.423-7.099 0 0-4.491.634-5.199 2.635 0 0 3.002-2.513 5.517-1.781 2.514.731 4.077 5.05 4.126 6.489.048 1.44-1.221 6.1-2.783 6.514-.586.171-1.294.147-1.905.049.44.634.855 1.366 1.27 2.171 3.833 7.393.537 16.103-2.588 15.371-2.002-.464-3.198 2.976-3.198 2.976l-19.164-16.468c-.024-.024 6.689-14.785 14.501-10.857z" fill="#2C3A64"/><path d="M317.315 237.41c2.124 1.463 4.785 2.683 8.13 3.464 12.523 2.903 17.333-7.685 19.139-14.956-1.709-.975-3.32-1.195-4.247-1.293a61.908 61.908 0 00-2.637-.219c-1.416-1.074-3.515-5.49-3.979-12.321l-.586.147-9.887 2.708s.464 3.147.683 6.099c.171 2.318.196 4.538-.244 5.075-.781.17-1.245.268-1.245.268-.122.22-2.978 4.928-5.127 11.028z" fill="#FFB27D"/><path d="M323.272 214.915s.464 3.148.684 6.1c5.591-.561 8.203-5.88 9.204-8.808l-9.888 2.708z" fill="#ED985F"/><path d="M323.149 219.624s12.89-3.318 10.693-11.296c-2.197-7.978-2.002-13.784-10.302-12.028-8.325 1.781-9.082 5.27-9.008 8.1.097 2.855 5.2 15.883 8.617 15.224z" fill="#FFB27D"/><path d="M313.702 199.887c1.318-2.952 2.954-2.83 4.004-2.342 5.956-5.783 12.035-1.318 12.035-1.318 2.441 5.489 7.47 7.636 7.47 7.636s-1.953 2.074-7.714 2.172c-1.758.024-3.564-.732-5.2-1.806 3.174 3.05 6.884 4.88 6.884 4.88-7.25-1.196-12.303-9.442-12.816-10.32-.586.927-1.709 2.879-1.782 4.489-.074 2.22.781 6.465-.489 6.66.025 0-4.369-5.635-2.392-10.051z" fill="#2C3A64"/><path d="M319.439 225.723s21.629-5.245 31.052 2.513l-4.711 65.531-42.332-10.222s1.196-4.148 9.301-15.175c8.13-11.028 4.614-27.203 6.69-42.647z" fill="#FFB27D"/><path d="M332.061 286.472s-.024.22-.073.635c-.025.171-.049.39-.074.659-.17 1.707-.537 4.952-.976 9.197-1.172 11.125-2.978 28.96-4.223 43.061-.977 11.028-1.587 19.738-1.245 21.129 1 4.22 0 54.576 0 54.576-3.589 1.732-9.058 0-9.058 0s-9.569-45.379-8.251-51.698c1.343-6.319-.903-11.686-.903-11.686-7.446-34.62-6.616-53.82-5.151-62.994.439-2.683.927-4.489 1.269-5.611.293-.951.513-1.391.513-1.391 16.429-4.391 28.172 4.123 28.172 4.123z" fill="#2B478B"/><path d="M353.397 246.925c-1.05 7.88-5.224 17.541-6.713 22.738 0 0 2.49 18.029.122 22.982-.269.561-.611.952-1.026 1.147-8.812 3.83-43.185.122-44.65-10.979-.537-4.026 13.085-18.176 13.891-19.908.341-.708.683-3.026-.928-7.783-2.27 6.978-14.745 4.977-14.745 4.977 1.464-2.513 5.126-19.859 9.203-27.691 3.076-5.88 11.254-6.734 11.254-6.734s3.418 5.392 11.645 4.636c8.252-.756 9.741-5.807 9.741-5.807s7.299.976 9.57 2.782c.39.292 4.028 9.295 2.636 19.64z" fill="#589245"/><path d="M346.683 269.638s2.49 18.03.122 22.983c-6.42-3.221-11.498-11.955-10.326-21.665.854-7.173 2.148-8.832 6.005-12.931 2.832-3.025 9.35-3.196 8.838-1.756-1.514 4.294-3.833 10.637-4.639 13.369z" fill="#6FA95C"/><path d="M319.854 248.315l14.745 23.641h-25.072l-14.061-23.128 24.388-.513z" fill="#1C468A"/><path d="M333.818 270.761l.269-.83-13.964-22.348-.269.732 13.964 22.446z" fill="#EFDECE"/><path d="M320.123 247.583l-23.607.659-1.05.586 24.388-.513.269-.732z" fill="#FCECDB"/><path d="M295.466 248.828l-13.232-7.149 15.429 24.227 11.865 6.05-14.062-23.128z" fill="#163560"/><path d="M365.603 265.393c-1.416.659-5.053 4.929-6.371 5.368-5.835 1.951-30.736-3.245-30.736-3.245l.781-4.367s24.413.658 27.098-.073c.513-.147 3.15-4.27 4.15-4.856l5.078 7.173z" fill="#FFB27D"/><path d="M329.277 263.149s-2.954-2.391-4.931-1.854c-2.002.536-4.907 3.049-6.005 3.659-1.099.586-4.053 2.733-2.539 4.026 1.489 1.293 6.152.17 8.007-.805 1.855-.976 4.712-.659 4.712-.659l.756-4.367z" fill="#FFB27D"/><path d="M324.907 261.221s-3.588-.414-4.565-.414c-.976.024-.708.244-.171 1 .537.756 2.393 1.049 2.49 1.317.098.269 2.246-1.903 2.246-1.903z" fill="#FFB27D"/><path d="M341.216 224.479s10.619 1.269 13.524 5.807c3.687 5.757 12.426 28.666 12.133 34.424 0 0-6.371 10.833-28.245 9.1 0 0-2.27-8.026 2.319-10.686 0 0 11.23-2 12.524-3.122l-9.155-16.639-3.1-18.884z" fill="#589245"/><path d="M298.884 257.464c-.318-1.342-3.247-.512-4.224.269-.244.195-.488.512-.757.878-.024-.22-.048-.439-.073-.61-.049-.634-.781-1.757-.976-.903-.171.854-.489 4.367-.489 4.367-.024 2.855 1.807 4.026 2.979 3.099 1.172-.903 3.857-5.758 3.54-7.1z" fill="#FFB27D"/><path d="M688.46 423.536H19.945a.864.864 0 01-.854-.853v-.562c0-.463.39-.853.854-.853H688.46c.464 0 .855.39.855.853v.562a.865.865 0 01-.855.853z" fill="#2E3552"/></g><defs><clipPath id="clip0_63:868"><path fill="#fff" d="M0 0h692v424H0z"/></clipPath></defs></svg>