<svg width="692" height="424" viewBox="0 0 692 424" fill="none" xmlns="http://www.w3.org/2000/svg">
<path d="M38.6938 424L259.359 422.853L318.169 422.829H337.651L396.583 422.805L665.829 422.731C665.829 422.731 727.422 343.806 661.63 268.858C593.422 191.152 560.269 254.439 539.299 145.042C486.519 -130.281 -35.2032 29.9842 101.629 264.296C150.919 348.661 4.63815 303.819 38.6938 424Z" fill="#EBF3FA"/>
<path d="M241.685 366.544L240.489 365.886C239.219 365.178 238.756 363.592 239.439 362.324L244.932 352.321C245.64 351.052 247.227 350.589 248.496 351.272L250.205 352.199C250.449 352.345 250.547 352.638 250.4 352.906C250.254 353.15 249.961 353.248 249.692 353.102L247.984 352.175C247.202 351.76 246.226 352.028 245.811 352.809L240.318 362.812C239.903 363.592 240.172 364.568 240.953 364.983L242.149 365.642C242.93 366.057 243.907 365.788 244.322 365.007L247.959 358.371C248.106 358.127 248.399 358.03 248.667 358.176C248.911 358.323 249.009 358.615 248.862 358.884L245.225 365.52C244.566 366.764 242.955 367.252 241.685 366.544Z" fill="#AFCDFB"/>
<path d="M236.607 377.06L234.459 375.889C232.481 374.791 231.798 372.18 232.97 370.058L241.221 355.004C241.368 354.761 241.661 354.663 241.929 354.809C242.173 354.956 242.271 355.248 242.124 355.517L233.873 370.57C232.97 372.205 233.458 374.181 234.947 375.01L237.095 376.181C238.585 376.986 240.513 376.328 241.416 374.693L250.815 357.566C251.719 355.932 251.23 353.955 249.741 353.126C249.497 352.98 249.399 352.687 249.546 352.418C249.692 352.174 249.985 352.077 250.254 352.223C252.231 353.321 252.915 355.932 251.743 358.054L242.344 375.181C241.148 377.304 238.585 378.133 236.607 377.06Z" fill="#AFCDFB"/>
<path opacity="0.6" d="M442.65 310.894H180.092C173.647 310.894 168.398 305.673 168.398 299.208V78.9983C168.398 72.5574 173.623 67.312 180.092 67.312H442.65C449.095 67.312 454.343 72.533 454.343 78.9983V299.232C454.343 305.673 449.119 310.894 442.65 310.894Z" fill="white"/>
<path d="M454.344 94.3447H168.424V76.0467C168.424 71.2405 172.33 67.3369 177.139 67.3369H445.629C450.438 67.3369 454.344 71.2405 454.344 76.0467V94.3447Z" fill="#699DEE"/>
<path d="M179.97 80.6573C179.97 78.8763 181.41 77.4369 183.192 77.4369C184.974 77.4369 186.415 78.8763 186.415 80.6573C186.415 82.4383 184.974 83.8778 183.192 83.8778C181.434 83.9022 179.97 82.4383 179.97 80.6573Z" fill="#DDE7FE"/>
<path d="M193.543 80.6573C193.543 78.8763 194.983 77.4369 196.765 77.4369C198.548 77.4369 199.988 78.8763 199.988 80.6573C199.988 82.4383 198.548 83.8778 196.765 83.8778C195.008 83.9022 193.543 82.4383 193.543 80.6573Z" fill="#DDE7FE"/>
<path d="M207.116 80.6573C207.116 78.8763 208.557 77.4369 210.339 77.4369C212.121 77.4369 213.561 78.8763 213.561 80.6573C213.561 82.4383 212.121 83.8778 210.339 83.8778C208.581 83.9022 207.116 82.4383 207.116 80.6573Z" fill="#DDE7FE"/>
<path opacity="0.5" d="M272.128 115.789H191.078V196.788H272.128V115.789Z" fill="#CDE0FB"/>
<path opacity="0.5" d="M358.645 121.816H294.172C292.487 121.816 291.12 120.449 291.12 118.766C291.12 117.082 292.487 115.716 294.172 115.716H358.645C360.33 115.716 361.697 117.082 361.697 118.766C361.697 120.449 360.33 121.816 358.645 121.816Z" fill="#7C9AF2"/>
<path opacity="0.5" d="M435.741 117.717H371.267C369.583 117.717 368.216 116.35 368.216 114.667C368.216 112.984 369.583 111.617 371.267 111.617H435.741C437.426 111.617 438.793 112.984 438.793 114.667C438.793 116.35 437.426 117.717 435.741 117.717Z" fill="#7C9AF2"/>
<g opacity="0.3">
<path opacity="0.3" d="M371.39 145.383H293.074C291.976 145.383 291.097 144.505 291.097 143.407C291.097 142.309 291.976 141.431 293.074 141.431H371.39C372.488 141.431 373.367 142.309 373.367 143.407C373.392 144.505 372.488 145.383 371.39 145.383Z" fill="#BDD1F9"/>
<path opacity="0.3" d="M401.173 145.383H380.496C379.397 145.383 378.519 144.505 378.519 143.407C378.519 142.309 379.397 141.431 380.496 141.431H401.173C402.272 141.431 403.151 142.309 403.151 143.407C403.151 144.505 402.272 145.383 401.173 145.383Z" fill="#BDD1F9"/>
<path opacity="0.3" d="M322.638 157.704H293.099C292 157.704 291.121 156.826 291.121 155.728C291.121 154.63 292 153.751 293.099 153.751H322.638C323.736 153.751 324.615 154.63 324.615 155.728C324.615 156.801 323.736 157.704 322.638 157.704Z" fill="#BDD1F9"/>
<path opacity="0.3" d="M370.487 157.704H330.011C328.912 157.704 328.033 156.826 328.033 155.728C328.033 154.63 328.912 153.751 330.011 153.751H370.487C371.585 153.751 372.464 154.63 372.464 155.728C372.489 156.801 371.585 157.704 370.487 157.704Z" fill="#BDD1F9"/>
<path opacity="0.3" d="M401.173 157.704H380.496C379.397 157.704 378.519 156.826 378.519 155.728C378.519 154.63 379.397 153.751 380.496 153.751H401.173C402.272 153.751 403.151 154.63 403.151 155.728C403.151 156.801 402.272 157.704 401.173 157.704Z" fill="#BDD1F9"/>
<path opacity="0.3" d="M333.184 168.341H293.099C292 168.341 291.121 167.463 291.121 166.365C291.121 165.267 292 164.389 293.099 164.389H333.184C334.283 164.389 335.161 165.267 335.161 166.365C335.161 167.438 334.283 168.341 333.184 168.341Z" fill="#BDD1F9"/>
<path opacity="0.3" d="M409.742 168.341H344.17C343.071 168.341 342.192 167.463 342.192 166.365C342.192 165.267 343.071 164.389 344.17 164.389H409.742C410.841 164.389 411.72 165.267 411.72 166.365C411.72 167.438 410.841 168.341 409.742 168.341Z" fill="#BDD1F9"/>
</g>
<g opacity="0.3">
<path opacity="0.3" d="M371.39 184.492H293.074C291.976 184.492 291.097 183.614 291.097 182.516C291.097 181.418 291.976 180.54 293.074 180.54H371.39C372.488 180.54 373.367 181.418 373.367 182.516C373.392 183.589 372.488 184.492 371.39 184.492Z" fill="#BDD1F9"/>
<path opacity="0.3" d="M401.173 184.492H380.496C379.397 184.492 378.519 183.614 378.519 182.516C378.519 181.418 379.397 180.54 380.496 180.54H401.173C402.272 180.54 403.151 181.418 403.151 182.516C403.151 183.589 402.272 184.492 401.173 184.492Z" fill="#BDD1F9"/>
<path opacity="0.3" d="M322.638 196.788H293.099C292 196.788 291.121 195.91 291.121 194.812C291.121 193.714 292 192.836 293.099 192.836H322.638C323.736 192.836 324.615 193.714 324.615 194.812C324.615 195.91 323.736 196.788 322.638 196.788Z" fill="#BDD1F9"/>
<path opacity="0.3" d="M370.487 196.788H330.011C328.912 196.788 328.033 195.91 328.033 194.812C328.033 193.714 328.912 192.836 330.011 192.836H370.487C371.585 192.836 372.464 193.714 372.464 194.812C372.489 195.91 371.585 196.788 370.487 196.788Z" fill="#BDD1F9"/>
</g>
<path d="M227.428 127.866H235.802L258.408 179.588H248.863L243.638 167.194H219.323L214.026 179.588H204.773L227.428 127.866ZM240.343 159.192L231.456 138.65L222.643 159.192H240.343Z" fill="#BDD1F9"/>
<path d="M236.364 213.11H191.078V221.844H236.364V213.11Z" fill="#91B5F8"/>
<path d="M236.364 221.844H191.078V230.579H236.364V221.844Z" fill="#699DEE"/>
<path d="M236.364 230.578H191.078V239.313H236.364V230.578Z" fill="#BDD1F9"/>
<path d="M269.711 218.038H244.81C243.761 218.038 242.931 217.184 242.931 216.16C242.931 215.111 243.785 214.281 244.81 214.281H269.711C270.761 214.281 271.591 215.135 271.591 216.16C271.591 217.209 270.761 218.038 269.711 218.038Z" fill="#BDD1F9"/>
<path d="M261.312 224.699H244.785C243.735 224.699 242.905 223.845 242.905 222.82C242.905 221.771 243.76 220.942 244.785 220.942H261.312C262.362 220.942 263.192 221.795 263.192 222.82C263.217 223.845 262.362 224.699 261.312 224.699Z" fill="#BDD1F9"/>
<path d="M236.364 258.269H191.078V276.128H236.364V258.269Z" fill="#AFCDFB"/>
<path d="M236.364 271.712H191.078V284.472H236.364V271.712Z" fill="#699DEE"/>
<path d="M191.078 258.269L207.313 271.907L191.078 284.472V258.269Z" fill="#91B5F8"/>
<path d="M269.711 263.222H244.81C243.761 263.222 242.931 262.368 242.931 261.343C242.931 260.294 243.785 259.465 244.81 259.465H269.711C270.761 259.465 271.591 260.319 271.591 261.343C271.591 262.368 270.761 263.222 269.711 263.222Z" fill="#BDD1F9"/>
<path d="M261.312 269.858H244.785C243.735 269.858 242.905 269.004 242.905 267.98C242.905 266.93 243.76 266.101 244.785 266.101H261.312C262.362 266.101 263.192 266.955 263.192 267.98C263.217 269.029 262.362 269.858 261.312 269.858Z" fill="#BDD1F9"/>
<path d="M457.224 89.367C457.224 89.367 458.396 103.42 455.198 103.2C452 102.981 445.677 96.8082 432.909 97.8085C420.141 98.8088 404.542 101.614 395.119 84.9267C385.695 68.239 407.178 63.4327 407.178 63.4327L457.224 89.367Z" fill="#233862"/>
<path d="M430.102 88.3424L494.405 93.6366L495.723 90.7578L434.106 45.3057L371.853 38.0353L370.657 40.597L430.102 88.3424Z" fill="#2B478B"/>
<path d="M473.874 136.722C473.483 135.405 472.116 134.624 470.798 135.014C469.48 135.405 468.698 136.771 469.089 138.088C469.455 139.406 470.847 140.187 472.165 139.796C473.483 139.43 474.24 138.04 473.874 136.722Z" fill="#589245"/>
<path d="M471.725 137.405C474.313 137.21 474.899 160.656 474.899 160.656C474.899 160.656 473.214 161.437 472.384 161.266C471.554 161.071 471.139 157.923 471.139 157.923L471.066 161.242C471.066 161.242 468.234 161.339 467.258 160.656C467.258 160.632 467.648 137.723 471.725 137.405Z" fill="#589245"/>
<path d="M472.556 137.942L472.092 86.7321L471.75 86.4637L438.183 61.6517L436.986 63.2863L470.212 87.8544L470.969 137.844L472.556 137.942Z" fill="#589245"/>
<path d="M515.888 379.621H374.661V325.996H516.352C527.802 325.996 537.078 335.267 537.078 346.71V358.42C537.078 370.131 527.606 379.621 515.888 379.621Z" fill="#FCECDB"/>
<path d="M658.238 348.051V356.127C658.238 360.445 657.164 364.471 655.259 367.935C651.451 374.913 644.371 379.621 636.266 379.621H370.315C368.558 379.621 367.142 378.084 367.142 376.206V374.986C367.142 373.107 368.558 371.57 370.315 371.57H532.439C533.318 370.448 534.075 369.228 534.71 367.911C536.223 364.861 537.078 361.372 537.078 357.664V347.417C537.078 345.538 536.858 343.709 536.419 341.952C535.686 339 534.392 336.292 532.659 333.999H370.291C368.533 333.999 367.117 332.461 367.117 330.583V329.387C367.117 327.509 368.533 325.972 370.291 325.972H637.585C647.008 325.972 654.942 332.73 657.408 341.952C657.969 343.904 658.238 345.953 658.238 348.051Z" fill="#699DEE"/>
<path d="M657.432 341.977H536.419C535.686 339.025 534.392 336.317 532.659 334.023H370.291C368.533 334.023 367.117 332.486 367.117 330.608V329.412C367.117 327.534 368.533 325.997 370.291 325.997H637.585C647.032 325.997 654.966 332.755 657.432 341.977Z" fill="#548EE2"/>
<path d="M374.661 352.809L394.362 353.711L374.661 354.248V352.809Z" fill="#F4D2B8"/>
<path d="M374.661 361.201L421.509 362.104L374.661 362.665V361.201Z" fill="#F4D2B8"/>
<path d="M354.032 421.219H492.647V379.499H352.787C342.412 379.499 333.989 387.916 333.989 398.285V401.189C333.989 412.24 342.973 421.219 354.032 421.219Z" fill="#589245"/>
<path d="M485.982 421.219H643.981V379.499H485.543C474.972 379.499 466.428 388.063 466.428 398.602V401.652C466.428 412.46 475.167 421.219 485.982 421.219Z" fill="#FCECDB"/>
<path d="M455.979 421.219H649.303C650.914 421.219 652.208 419.926 652.208 418.315V417.876C652.208 416.266 650.914 414.973 649.303 414.973H455.979C454.368 414.973 453.074 416.266 453.074 417.876V418.315C453.074 419.901 454.368 421.219 455.979 421.219Z" fill="#589245"/>
<path d="M455.979 385.745H649.303C650.914 385.745 652.208 384.452 652.208 382.842V382.403C652.208 380.792 650.914 379.499 649.303 379.499H455.979C454.368 379.499 453.074 380.792 453.074 382.403V382.842C453.074 384.428 454.368 385.745 455.979 385.745Z" fill="#589245"/>
<path d="M643.98 400.359L622.448 401.042L643.98 401.481V400.359Z" fill="#F4D2B8"/>
<path d="M643.98 390.746L592.763 391.454L643.98 391.869V390.746Z" fill="#F4D2B8"/>
<path d="M593.3 391.308C593.3 391.308 595.497 393.089 596.229 396.041C596.351 396.553 596.449 397.114 596.449 397.7C596.571 401.603 596.449 410.459 596.449 410.459L602.918 406.019L609.388 410.459V398.456C609.388 396.187 608.826 393.967 607.801 392.527C607.313 391.82 606.702 391.308 606.019 391.308H593.3Z" fill="#699DEE"/>
<path d="M593.3 391.308C593.3 391.308 595.497 393.089 596.229 396.041L609.217 396.211C609.217 396.211 608.704 391.991 606.019 391.308H593.3Z" fill="#568CDB"/>
<path d="M475.46 326.094H339.018V264.808H475.972C488.081 264.808 497.895 274.616 497.895 286.717V303.673C497.895 316.066 487.861 326.094 475.46 326.094Z" fill="#FCECDB"/>
<path d="M497.969 288.596V301.795C497.944 307.43 495.332 312.31 491.475 314.92C489.595 316.214 487.398 316.945 485.079 316.945H334.844C333.086 316.945 331.646 318.653 331.646 320.751V322.313C331.646 324.411 333.061 326.119 334.844 326.119H594.398C601.844 326.119 608.436 321.703 612.415 314.945C614.929 310.675 616.394 305.503 616.394 299.892V289.474C616.394 285.644 615.662 282.009 614.343 278.764C610.999 270.517 603.944 264.833 595.741 264.833H334.844C333.086 264.833 331.646 266.541 331.646 268.639V270.2C331.646 272.298 333.061 274.006 334.844 274.006H485.543C489.156 274.006 492.403 275.836 494.673 278.764C496.699 281.35 497.944 284.79 497.969 288.596Z" fill="#AFCDFB"/>
<path d="M331.646 320.751V322.312C331.646 324.41 333.061 326.118 334.844 326.118H594.399C601.844 326.118 608.436 321.702 612.415 314.944H491.499C489.62 316.237 487.422 316.969 485.103 316.969H334.868C333.086 316.945 331.646 318.628 331.646 320.751Z" fill="#A4C4F4"/>
<path d="M339.018 295.451L358.279 296.5L339.018 297.11V295.451Z" fill="#F4D2B8"/>
<path d="M339.018 281.349L384.84 282.398L339.018 283.008V281.349Z" fill="#F4D2B8"/>
<path d="M384.377 282.179C384.377 282.179 381.349 284.13 380.348 287.327C380.178 287.888 380.056 288.473 380.031 289.108C379.86 293.353 380.031 302.965 380.031 302.965L371.096 298.159L362.186 302.965V289.937C362.186 287.473 362.942 285.082 364.358 283.521C365.042 282.764 365.872 282.179 366.824 282.179H384.377Z" fill="#6FA95C"/>
<path d="M384.377 282.179C384.377 282.179 381.349 284.13 380.349 287.327L362.454 287.522C362.454 287.522 363.162 282.959 366.848 282.203H384.377V282.179Z" fill="#589245"/>
<path d="M156.29 320.678C156.29 320.678 184.267 332.852 189.345 332.632C194.422 332.413 225.695 323.117 225.695 323.117L224.889 328.485C224.889 328.485 200.745 342.367 192.298 343.147C183.998 343.928 155.582 335.706 152.823 333.95C150.065 332.193 148.331 322.434 156.29 320.678Z" fill="#ED985F"/>
<path d="M152.091 275.884C152.091 275.884 141.764 273.932 136.637 277.665C127.336 284.448 126.823 307.869 123.332 311.358C119.841 314.847 111.443 313.358 110.687 331.412C109.93 349.466 114.031 350.979 109.149 359.03C104.266 367.081 111.224 375.157 111.224 375.157C111.224 375.157 108.392 370.716 109.588 367.496C109.588 367.496 110.76 374.571 115.276 376.255C119.793 377.914 120.452 379.133 121.16 381.573C121.16 381.573 159.585 361.885 159.634 347.929C159.683 333.974 167.202 320.141 163.516 314.09C163.516 314.09 165.151 316.676 165.371 319.555C165.371 319.555 167.593 315.31 163.735 311.358C159.903 307.406 168.252 299.232 167.007 289.766C166.177 283.277 161.611 276.153 152.091 275.884Z" fill="#233862"/>
<path d="M159.707 333.974C157.241 335.682 154.165 337.073 150.308 337.975C135.807 341.318 130.266 329.07 128.166 320.678C130.143 319.555 131.999 319.287 133.073 319.165C134.123 319.043 135.221 318.97 136.125 318.921C137.76 317.677 140.177 312.578 140.714 304.649L141.398 304.819L152.823 307.942C152.823 307.942 152.31 311.578 152.042 314.993C151.846 317.677 151.822 320.239 152.31 320.873C153.213 321.068 153.726 321.19 153.726 321.19C153.921 321.483 157.217 326.923 159.707 333.974Z" fill="#FFB27D"/>
<path d="M152.823 307.967C152.823 307.967 152.285 311.602 152.041 315.017C145.572 314.359 142.569 308.211 141.397 304.844L152.823 307.967Z" fill="#ED985F"/>
<path d="M154.751 311.382C154.751 311.382 139.396 310.528 140.055 300.989C140.738 291.425 139.2 284.887 149.039 285.033C158.877 285.18 160.513 288.961 161.074 292.182C161.636 295.426 158.779 311.358 154.751 311.382Z" fill="#FFB27D"/>
<path d="M161.001 286.839C158.829 283.789 156.998 284.301 155.924 285.082C147.867 279.885 141.984 286.302 141.984 286.302C140.47 293.084 135.246 296.646 135.246 296.646C135.246 296.646 137.907 298.574 144.474 297.378C146.476 297.012 148.331 295.744 149.942 294.158C147.013 298.33 143.253 301.233 143.253 301.233C151.212 298.232 155.069 287.741 155.46 286.643C156.339 287.546 158.047 289.498 158.487 291.328C159.073 293.816 161.612 297.695 163.101 297.647C163.101 297.647 164.273 291.401 161.001 286.839Z" fill="#233862"/>
<path d="M123.796 365.203C122.405 358.127 117.888 329.802 122.405 320.702C124.04 317.433 130.412 317.14 137.394 317.433C139.567 318.848 147.867 324.142 151.26 323.483C151.285 323.483 151.358 323.459 151.456 323.435C153.067 323.044 153.677 321.898 152.335 320.946C152.335 320.946 155.801 320.604 160.098 321.41C162.539 321.873 169.082 325.264 169.082 325.264C169.082 325.264 165.786 331.217 160.928 333.267C161.758 340.659 160.513 343.928 152.847 361.006C146.353 375.449 153.726 388.453 153.726 388.453C153.726 388.453 115.52 419.145 115.325 403.506C115.13 391.722 125.554 374.254 123.796 365.203Z" fill="#F9DDBF"/>
<path d="M155.606 421.804C157.681 421.56 159.561 420.438 160.708 418.706C160.903 418.437 161.099 418.145 161.294 417.827C165.639 411.24 167.324 391.112 177.113 369.643C179.506 364.422 188.05 363.47 190.369 357.566C190.369 357.566 196.106 338.414 179.384 337.853C162.661 337.292 134.611 391.112 134.147 396.773C133.732 402.213 123.113 425.464 155.606 421.804Z" fill="#387823"/>
<path d="M222.057 421.365H198.255C198.255 421.365 197.376 417.583 198.939 414.997C200.33 412.704 199.793 411.411 198.768 409.532C199.842 409.972 201.233 410.386 202.771 410.289C203.968 410.215 205.213 409.679 206.311 409.044C207.337 410.215 211.731 415.168 213.098 416.168C214.636 417.266 221.569 416.852 222.057 421.365Z" fill="#233862"/>
<path d="M190.931 343.367C192.371 354.102 197.962 387.99 207.824 404.531C210.998 409.85 199.817 412.851 199.744 412.826C198.23 412.436 195.74 410.045 194.593 408.996C186.585 401.774 170.302 381.329 170.302 364.959C170.302 356.956 170.156 341.708 175.966 337.829C179.554 335.462 190.345 339.122 190.931 343.367Z" fill="#387823"/>
<path d="M141.398 421.365C141.398 421.365 142.277 420.145 143.815 417.803C145.646 415.022 147.672 409.581 150.138 402.579C152.726 395.236 155.777 386.209 159.61 376.816C160.782 373.912 162.051 370.985 163.37 368.057C165.762 362.836 172.305 363.544 174.624 357.639C174.624 357.639 183.73 337.17 167.007 336.609C150.284 336.048 118.499 391.381 116.693 396.748C114.691 402.628 104.95 426.976 141.398 421.365Z" fill="#589245"/>
<path d="M204.578 421.365H180.776C180.776 421.365 179.897 417.583 181.459 414.997C182.851 412.704 182.314 411.411 181.288 409.532C182.362 409.972 183.754 410.386 185.292 410.289C186.488 410.215 187.733 409.679 188.832 409.044C189.857 410.215 194.251 415.168 195.619 416.168C197.181 417.266 204.114 416.852 204.578 421.365Z" fill="#2B478B"/>
<path d="M150.137 402.579C152.725 395.236 155.777 386.209 159.609 376.816C158.608 369.692 156.46 363.47 152.823 360.958C152.823 360.982 144.034 388.209 150.137 402.579Z" fill="#6FA95C"/>
<path d="M177.016 342.611C178.456 353.346 180.458 387.99 190.345 404.531C193.519 409.85 182.338 412.85 182.265 412.826C180.751 412.436 178.261 410.045 177.114 408.996C169.106 401.774 152.823 381.329 152.823 364.959C152.823 356.956 162.198 342.342 168.032 338.463C171.597 336.097 176.455 338.341 177.016 342.611Z" fill="#589245"/>
<path d="M157.632 305.893C157.632 305.893 156.192 305.307 152.091 305.649C152.091 305.649 152.311 307.235 155.313 307.405C157.022 307.479 157.632 305.893 157.632 305.893Z" fill="white"/>
<path d="M228.697 311.87L223.766 302.965L213.073 332.73L219.372 339.488L228.697 311.87Z" fill="#163560"/>
<path d="M202.917 317.067L193.006 345.392L219.371 339.488L228.697 311.87L202.917 317.067Z" fill="#1C468A"/>
<path d="M193.519 343.977L193.055 343.172L202.454 316.359L202.917 317.067L193.519 343.977Z" fill="#EFDECE"/>
<path d="M202.453 316.359L227.452 311.504L228.697 311.87L202.917 317.067L202.453 316.359Z" fill="#FCECDB"/>
<path d="M228.697 311.87L223.35 303.404L219.957 312.944L227.452 311.504L228.697 311.87Z" fill="#EFDECE"/>
<path d="M210.534 321.166C209.68 320.995 207.825 320.312 205.969 319.799C206.531 319.36 207.141 318.848 207.312 318.287C207.654 317.238 207.873 316.896 206.75 317.238C205.652 317.579 201.77 319.336 201.77 319.336C199.573 319.97 197.547 323.093 197.547 323.093C197.547 323.093 170.278 332.681 167.007 332.827C161.929 333.071 128.142 320.653 128.142 320.653C120.159 322.41 121.965 332.193 124.7 333.95C127.434 335.682 151.749 344.514 166.152 344.684C173.452 344.758 199.988 327.728 199.988 327.728C199.988 327.728 203.089 326.313 205.53 326.752C207.971 327.192 213.61 326.752 214.831 324.752C216.076 322.776 211.975 321.458 210.534 321.166Z" fill="#FFB27D"/>
<path d="M145.573 326.801C145.573 326.801 142.545 336.365 132.17 338.536C132.17 338.536 115.032 333.267 123.577 321.605C123.552 321.605 131.999 315.335 145.573 326.801Z" fill="#F9DDBF"/>
<path d="M228.259 321.897C228.259 321.629 228.234 321.385 228.161 321.117C228.161 321.117 225.72 317.262 224.914 317.091C222.473 316.603 222.473 319.824 222.985 321.897C223.352 323.337 224.255 324.727 225.012 325.459L224.914 328.485C229.04 326.24 228.259 321.897 228.259 321.897Z" fill="#FFB27D"/>
<path d="M85.0782 271.444C86.0547 247.339 65.841 236.653 45.188 236.653C24.5349 236.653 2.05089 241.996 0.0978765 274.03C-1.14717 294.646 9.83851 307.332 41.5017 307.332C52.17 307.332 60.4703 305.649 66.842 302.648L82.6613 316.701L74.8737 297.281C81.7581 290.864 84.6632 281.837 85.0782 271.444Z" fill="#EBF3FA"/>
<path d="M29.4911 263.393V269.028H33.1774V263.393H34.6666V276.518H33.1774V270.395H29.4911V276.518H28.002V263.393H29.4911Z" fill="#91B5F8"/>
<path d="M37.8642 271.932C37.8642 274.835 39.0116 275.445 40.0857 275.445C40.7449 275.445 41.2819 275.299 41.6481 275.103L41.8923 276.201C41.3552 276.47 40.574 276.64 39.8172 276.64C37.5468 276.64 36.3994 274.786 36.3994 271.907C36.3994 268.858 37.6933 266.955 39.5975 266.955C41.5017 266.955 42.2829 268.98 42.2829 271.078C42.2829 271.444 42.2584 271.712 42.234 271.932H37.8642ZM40.8425 270.834C40.8669 268.955 40.159 268.126 39.451 268.126C38.4501 268.126 37.9618 269.541 37.913 270.834H40.8425Z" fill="#91B5F8"/>
<path d="M43.8945 263.027H45.3837V276.494H43.8945V263.027Z" fill="#91B5F8"/>
<path d="M47.6055 263.027H49.0946V276.494H47.6055V263.027Z" fill="#91B5F8"/>
<path d="M57.1266 271.81C57.1266 275.445 55.4421 276.689 53.9774 276.689C52.2929 276.689 50.9258 275.152 50.9258 271.834C50.9258 268.419 52.4638 266.955 54.075 266.955C55.7839 266.955 57.1266 268.516 57.1266 271.81ZM52.4394 271.81C52.4394 273.371 52.7079 275.494 54.075 275.494C55.3689 275.494 55.6374 273.298 55.6374 271.81C55.6374 270.37 55.3689 268.15 54.0506 268.15C52.6835 268.15 52.4394 270.37 52.4394 271.81Z" fill="#91B5F8"/>
<path d="M493.062 315.359C497.554 323.288 503.242 326.362 503.242 326.362L526.995 326.533C526.971 326.533 489.644 309.308 493.062 315.359Z" fill="#233862"/>
<path d="M510.859 376.547C511.47 377.255 511.543 378.06 511.225 378.889C510.639 380.451 508.76 382.183 506.587 383.915C506.318 384.135 506.05 384.33 505.855 384.525C505.806 384.574 505.733 384.623 505.684 384.671C505.635 384.72 505.586 384.745 505.562 384.793C503.511 386.648 504.292 387.087 500.606 390.844C496.431 395.138 493.575 395.187 492.745 394.796C492.061 394.455 493.477 392.186 495.04 389.624C495.113 389.502 495.186 389.38 495.26 389.258C495.479 388.917 495.675 388.575 495.894 388.233C497.725 385.159 497.286 383.696 496.871 379.084C496.553 375.327 491.183 358.127 491.183 358.127L499.141 356.81C499.141 356.81 501.436 370.497 504.072 372.644C505.488 373.766 507.051 373.79 508.418 374.644C508.516 374.693 508.613 374.766 508.711 374.815C509.468 375.303 510.249 375.84 510.859 376.547Z" fill="#FFB27D"/>
<path d="M510.859 376.547C511.469 377.255 511.543 378.06 511.225 378.889C510.517 380.451 508.686 382.183 506.562 383.891C506.294 384.11 506.05 384.33 505.83 384.525C505.781 384.574 505.708 384.623 505.659 384.671C505.61 384.72 505.561 384.745 505.537 384.793C503.486 386.648 504.268 387.087 500.581 390.844C496.407 395.138 493.55 395.187 492.72 394.796C492.037 394.455 493.453 392.186 495.015 389.624C495.821 389.331 499.58 387.843 502.461 384.232C504.976 381.061 506.684 376.986 508.393 374.62C508.491 374.669 508.589 374.742 508.686 374.791C509.467 375.303 510.249 375.84 510.859 376.547Z" fill="#233862"/>
<path d="M446.751 371.131C446.239 373.571 442.748 373.156 438.842 372.156C434.935 371.18 435.863 372.327 430.297 371.668C424.731 371.009 423.071 368.935 422.9 368.106C422.754 367.374 425.512 367.13 428.466 366.813C428.832 366.764 429.199 366.74 429.589 366.691C432.934 366.3 435.375 364.178 438.426 362.421C441.307 360.762 445.628 354.004 445.628 354.004L453.269 354.663C453.269 354.663 449.217 360.713 447.654 363.348C446.727 364.885 446.776 366.959 446.873 368.545C446.873 369.374 446.922 370.277 446.751 371.131Z" fill="#FFB27D"/>
<path d="M438.842 372.156C434.936 371.18 435.863 372.327 430.297 371.668C424.731 371.009 423.071 368.935 422.9 368.106C422.754 367.374 425.512 367.13 428.466 366.813L428.491 366.862C428.491 366.862 431.811 369.252 436.449 369.399C440.233 369.521 444.237 368.472 446.849 368.521C446.898 369.374 446.947 370.277 446.776 371.131C446.239 373.571 442.748 373.156 438.842 372.156Z" fill="#233862"/>
<path d="M476.34 322.556L483.346 341.806L492.477 366.935C492.477 366.935 494.991 367.203 497.432 366.52C499.654 365.886 502.242 364.227 502.242 364.227C502.242 364.227 499.849 337.316 495.137 321.824C493.917 317.847 492.574 314.627 491.061 312.822C483.615 303.917 476.34 322.556 476.34 322.556Z" fill="#233862"/>
<path d="M483.809 292.133C488.496 290.669 501.826 292.694 515.179 295.402L518.011 290.791L546.964 288.741C546.964 288.741 556.363 309.967 551.041 323.41C550.26 325.386 548.356 326.216 545.744 326.24C545.744 326.24 528.484 326.533 522.894 326.508C508.515 326.411 492.524 316.408 490.449 315.969C487.056 315.261 485.64 322.044 482.198 329.168C478.756 336.292 449.998 360.543 449.998 360.543C449.998 360.543 445.603 360.567 443.797 359.86C441.844 359.103 441.136 358.152 441.136 358.152C441.136 358.152 473.238 295.451 483.809 292.133Z" fill="#2B478B"/>
<path d="M518.476 250.975C528.729 256.708 549.553 268.614 549.675 268.541C549.675 268.541 557.341 271.493 561.711 268.614C569.01 263.856 572.989 250.901 559.782 239.63C553.191 234.018 548.504 232.628 547.844 223.723C547.503 218.892 541.009 202.936 530.023 204.327C529.095 204.449 528.192 204.522 527.265 204.498C525.995 204.449 523.871 204.62 521.698 205.888C515.473 209.572 503.047 248.681 518.476 250.975Z" fill="#233862"/>
<path d="M527.143 246.217C527.094 246.242 532.196 248.022 535.638 246.534C538.861 245.144 541.351 239.874 541.302 239.849C539.837 239.776 538.25 238.483 537.054 230.091L536.419 230.31L525.922 233.994C525.922 233.994 526.654 237.361 527.118 240.557C527.533 243.265 527.728 245.851 527.143 246.217Z" fill="#FFB27D"/>
<path d="M525.922 234.018C525.922 234.018 526.361 236.385 526.996 239.752C533.026 238.703 535.565 233.579 536.419 230.334L525.922 234.018Z" fill="#ED975D"/>
<path d="M524.335 237.337C524.335 237.337 538.69 235.507 537.42 226.602C536.151 217.697 537.152 211.451 527.924 212.232C518.72 213.012 517.426 216.672 517.109 219.746C516.816 222.82 520.575 237.581 524.335 237.337Z" fill="#FFB27D"/>
<path d="M517.67 214.867C517.67 214.867 526.8 222.845 533.025 223.528C539.275 224.211 541.643 222.235 541.643 222.235C541.643 222.235 537.981 219.161 535.808 214.208C535.174 212.744 533.807 211.744 532.22 211.597C527.752 211.183 519.306 210.939 517.67 214.867Z" fill="#233862"/>
<path d="M523.407 214.208C523.407 214.208 520.306 217.16 519.33 219.356C518.378 221.478 518.06 226.553 518.793 228.578C518.793 228.578 514.081 219.258 516.815 214.745C519.745 209.963 523.407 214.208 523.407 214.208Z" fill="#233862"/>
<path d="M514.935 267.247C515.155 296.256 514.887 290.181 518.036 292.962C518.793 293.621 520.941 294.036 523.773 294.255C532.659 294.914 548.308 293.548 548.918 291.913C551.017 286.253 549.577 284.472 551.359 275.762C551.554 274.835 551.774 273.835 552.043 272.737C553.507 266.76 554.923 264.735 549.919 255.098C545.378 246.363 540.666 239.264 540.227 239.508C528.045 246.607 527.117 240.557 527.117 240.557C527.117 240.557 514.813 253.097 514.935 267.247Z" fill="#F9DDBF"/>
<path d="M483.346 341.806L492.476 366.935C492.476 366.935 494.99 367.203 497.432 366.52C499.653 365.886 502.241 364.227 502.241 364.227C502.241 364.227 499.849 337.316 495.137 321.824L483.346 341.806Z" fill="#2B478B"/>
<path d="M527.118 240.581C527.118 240.581 514.643 242.606 513.129 247.974C511.616 253.341 502.778 284.814 502.778 284.814C502.778 284.814 509.101 285.985 512.055 283.081C515.009 280.178 522.43 256 522.43 256L527.118 240.581Z" fill="#F9DDBF"/>
<path d="M523.773 294.231C532.66 294.89 548.308 293.523 548.918 291.889C551.018 286.229 549.578 284.448 551.36 275.738L547.161 263.637C547.161 263.637 547.771 277.08 543.792 280.593C539.813 284.106 527.484 287.302 525.556 290.254C524.579 291.669 523.969 293.084 523.773 294.231Z" fill="#F2CCAA"/>
<path d="M534.026 288.644C534.026 288.644 525.262 286.619 523.846 287.4C522.43 288.18 518.939 290.986 518.5 291.962C518.061 292.938 521.649 291.23 522.821 290.937C523.578 290.742 525.555 291.45 526.556 291.791C530.682 293.206 533.245 292.499 533.245 292.499L534.026 288.644Z" fill="#FFB27D"/>
<path d="M540.252 239.508C540.252 239.508 552.043 240.313 556.071 246.022C561.759 254.073 572.916 288.278 566.349 292.767C558.952 297.842 532.879 293.865 532.879 293.865C532.879 293.865 532.049 289.791 533.27 287.839C534.49 285.887 554.167 282.862 555.07 281.959C555.974 281.056 543.865 264.198 543.889 261.49C543.889 258.806 540.252 239.508 540.252 239.508Z" fill="#F9DDBF"/>
<path d="M523.383 289.839C523.383 289.839 521.527 292.206 520.917 292.474C520.307 292.743 519.916 292.669 519.916 292.669L521.161 290.449L523.383 289.839Z" fill="#FFB27D"/>
<path d="M523.822 287.4L518.451 289.961C518.451 289.961 518.671 290.327 519.33 290.303C519.989 290.279 521.649 289.693 521.649 289.693L523.822 287.4Z" fill="#FFB27D"/>
<path d="M522.064 296.305L479.757 296.012L467.258 264.295L509.492 264.588L522.064 296.305Z" fill="#589245"/>
<path d="M479.269 294.768L535.149 295.158L535.125 296.402L479.757 296.012L479.269 294.768Z" fill="#589245"/>
<path d="M490.548 280.276C490.23 279.153 490.889 278.275 491.988 278.275C493.111 278.275 494.258 279.202 494.576 280.3C494.893 281.422 494.234 282.301 493.135 282.301C492.012 282.301 490.865 281.398 490.548 280.276Z" fill="white"/>
<path d="M264.982 396.102L264.977 421.646L393.509 421.671L393.514 396.127L264.982 396.102Z" fill="#BDD1F9"/>
<path d="M264.975 421.633L246.079 413.558L235.094 408.849L246.348 404.043L264.975 396.089C264.975 396.089 267.465 402.311 267.489 408.166C267.562 417.339 264.975 421.633 264.975 421.633Z" fill="#FCECDB"/>
<path d="M408.447 404.604V412.68C408.447 417.657 404.419 421.682 399.439 421.658H393.482V396.114H399.952C404.663 396.138 408.447 399.92 408.447 404.604Z" fill="#FCECDB"/>
<path d="M246.348 404.067C246.812 406.653 247.227 410.606 246.079 413.558L235.094 408.849L246.348 404.067Z" fill="#2B478B"/>
<path d="M292.609 263.149C292.609 263.149 294.904 273.127 301.618 273.127C307.379 273.127 315.264 260.123 315.264 260.123L292.609 263.149Z" fill="#589245"/>
<path d="M369.656 410.606L365.335 413.558C365.335 413.558 344.609 391.478 339.604 370.302C338.701 366.52 338.359 362.787 338.725 359.25C338.725 359.25 338.432 358.298 337.895 356.59C337.871 356.517 337.846 356.444 337.822 356.371C337.602 355.639 337.309 354.761 336.992 353.76C335.991 350.564 334.6 346.173 333.037 341.196C329.424 329.729 321.124 303.843 317.584 293.084L343.046 283.886C343.046 283.886 345.927 290.474 350.102 308.381C350.736 310.723 351.371 313.31 351.981 316.115C352.665 319.311 353.3 322.8 353.812 326.557C354.716 332.949 355.301 340.122 355.35 348.002C355.375 351.199 355.277 354.541 355.106 357.957C354.96 360.469 355.35 363.812 356.034 367.642C359.232 385.086 369.656 410.606 369.656 410.606Z" fill="#2B478B"/>
<path d="M383.229 421.243H362.649C362.649 421.243 361.868 417.974 363.235 415.729C364.431 413.753 363.967 412.631 363.088 410.996C364.016 411.387 365.237 411.728 366.555 411.655C367.58 411.606 368.654 411.143 369.607 410.581C370.485 411.582 374.294 415.876 375.466 416.729C376.808 417.705 382.814 417.364 383.229 421.243Z" fill="#233862"/>
<path d="M353.812 326.582L337.822 356.371C337.602 355.639 337.309 354.761 336.992 353.76C335.991 350.564 334.6 346.173 333.037 341.196C329.424 329.729 321.124 303.843 317.584 293.084L343.046 283.886C343.046 283.886 345.927 290.474 350.102 308.381C350.736 310.723 351.371 313.31 351.981 316.115C352.665 319.336 353.3 322.825 353.812 326.582Z" fill="#233862"/>
<path d="M317.169 414.802C317.169 414.802 315.753 418.291 317.096 421.243H328.301C328.301 421.243 328.545 418.584 324.469 415.51C321.393 413.168 317.169 414.802 317.169 414.802Z" fill="#233862"/>
<path d="M329.375 187.395C329.375 186.834 329.668 180.832 338.798 180.296C338.798 180.296 334.307 180.93 333.599 182.931C333.599 182.931 336.601 180.418 339.116 181.15C341.63 181.881 343.193 186.2 343.242 187.639C343.29 189.079 342.021 193.739 340.459 194.153C339.873 194.324 339.165 194.3 338.554 194.202C338.994 194.836 339.409 195.568 339.824 196.373C343.657 203.766 340.361 212.476 337.236 211.744C335.234 211.28 334.038 214.72 334.038 214.72L314.874 198.252C314.85 198.228 321.563 183.467 329.375 187.395Z" fill="#2C3A64"/>
<path d="M317.315 237.41C319.439 238.873 322.1 240.093 325.445 240.874C337.968 243.777 342.778 233.189 344.584 225.918C342.875 224.943 341.264 224.723 340.337 224.625C339.433 224.528 338.481 224.455 337.7 224.406C336.284 223.332 334.185 218.916 333.721 212.085L333.135 212.232L323.248 214.94C323.248 214.94 323.712 218.087 323.931 221.039C324.102 223.357 324.127 225.577 323.687 226.114C322.906 226.284 322.442 226.382 322.442 226.382C322.32 226.602 319.464 231.31 317.315 237.41Z" fill="#FFB27D"/>
<path d="M323.272 214.915C323.272 214.915 323.736 218.063 323.956 221.015C329.547 220.454 332.159 215.135 333.16 212.207L323.272 214.915Z" fill="#ED985F"/>
<path d="M323.149 219.624C323.149 219.624 336.039 216.306 333.842 208.328C331.645 200.35 331.84 194.544 323.54 196.3C315.215 198.081 314.458 201.57 314.532 204.4C314.629 207.255 319.732 220.283 323.149 219.624Z" fill="#FFB27D"/>
<path d="M313.702 199.887C315.02 196.935 316.656 197.057 317.706 197.545C323.662 191.762 329.741 196.227 329.741 196.227C332.182 201.716 337.211 203.863 337.211 203.863C337.211 203.863 335.258 205.937 329.497 206.035C327.739 206.059 325.933 205.303 324.297 204.229C327.471 207.279 331.181 209.109 331.181 209.109C323.931 207.913 318.878 199.667 318.365 198.789C317.779 199.716 316.656 201.668 316.583 203.278C316.509 205.498 317.364 209.743 316.094 209.938C316.119 209.938 311.725 204.303 313.702 199.887Z" fill="#2C3A64"/>
<path d="M319.439 225.723C319.439 225.723 341.068 220.478 350.491 228.236L345.78 293.767L303.448 283.545C303.448 283.545 304.644 279.397 312.749 268.37C320.879 257.342 317.363 241.167 319.439 225.723Z" fill="#FFB27D"/>
<path d="M332.061 286.472C332.061 286.472 332.037 286.692 331.988 287.107C331.963 287.278 331.939 287.497 331.914 287.766C331.744 289.473 331.377 292.718 330.938 296.963C329.766 308.088 327.96 325.923 326.715 340.024C325.738 351.052 325.128 359.762 325.47 361.153C326.47 365.373 325.47 415.729 325.47 415.729C321.881 417.461 316.412 415.729 316.412 415.729C316.412 415.729 306.843 370.35 308.161 364.031C309.504 357.712 307.258 352.345 307.258 352.345C299.812 317.725 300.642 298.525 302.107 289.351C302.546 286.668 303.034 284.862 303.376 283.74C303.669 282.789 303.889 282.349 303.889 282.349C320.318 277.958 332.061 286.472 332.061 286.472Z" fill="#2B478B"/>
<path d="M353.397 246.925C352.347 254.805 348.173 264.466 346.684 269.663C346.684 269.663 349.174 287.692 346.806 292.645C346.537 293.206 346.195 293.597 345.78 293.792C336.968 297.622 302.595 293.914 301.13 282.813C300.593 278.787 314.215 264.637 315.021 262.905C315.362 262.197 315.704 259.879 314.093 255.122C311.823 262.1 299.348 260.099 299.348 260.099C300.812 257.586 304.474 240.24 308.551 232.408C311.627 226.528 319.805 225.674 319.805 225.674C319.805 225.674 323.223 231.066 331.45 230.31C339.702 229.554 341.191 224.503 341.191 224.503C341.191 224.503 348.49 225.479 350.761 227.285C351.151 227.577 354.789 236.58 353.397 246.925Z" fill="#589245"/>
<path d="M346.683 269.638C346.683 269.638 349.173 287.668 346.805 292.621C340.385 289.4 335.307 280.666 336.479 270.956C337.333 263.783 338.627 262.124 342.484 258.025C345.316 255 351.834 254.829 351.322 256.269C349.808 260.563 347.489 266.906 346.683 269.638Z" fill="#6FA95C"/>
<path d="M319.854 248.315L334.599 271.956H309.527L295.466 248.828L319.854 248.315Z" fill="#1C468A"/>
<path d="M333.818 270.761L334.087 269.931L320.123 247.583L319.854 248.315L333.818 270.761Z" fill="#EFDECE"/>
<path d="M320.123 247.583L296.516 248.242L295.466 248.828L319.854 248.315L320.123 247.583Z" fill="#FCECDB"/>
<path d="M295.466 248.828L282.234 241.679L297.663 265.906L309.528 271.956L295.466 248.828Z" fill="#163560"/>
<path d="M365.603 265.393C364.187 266.052 360.55 270.322 359.232 270.761C353.397 272.712 328.496 267.516 328.496 267.516L329.277 263.149C329.277 263.149 353.69 263.807 356.375 263.076C356.888 262.929 359.525 258.806 360.525 258.22L365.603 265.393Z" fill="#FFB27D"/>
<path d="M329.277 263.149C329.277 263.149 326.323 260.758 324.346 261.295C322.344 261.831 319.439 264.344 318.341 264.954C317.242 265.54 314.288 267.687 315.802 268.98C317.291 270.273 321.954 269.15 323.809 268.175C325.664 267.199 328.521 267.516 328.521 267.516L329.277 263.149Z" fill="#FFB27D"/>
<path d="M324.907 261.221C324.907 261.221 321.319 260.807 320.342 260.807C319.366 260.831 319.634 261.051 320.171 261.807C320.708 262.563 322.564 262.856 322.661 263.124C322.759 263.393 324.907 261.221 324.907 261.221Z" fill="#FFB27D"/>
<path d="M341.216 224.479C341.216 224.479 351.835 225.748 354.74 230.286C358.427 236.043 367.166 258.952 366.873 264.71C366.873 264.71 360.502 275.543 338.628 273.81C338.628 273.81 336.358 265.784 340.947 263.124C340.947 263.124 352.177 261.124 353.471 260.002L344.316 243.363L341.216 224.479Z" fill="#589245"/>
<path d="M298.884 257.464C298.566 256.122 295.637 256.952 294.66 257.733C294.416 257.928 294.172 258.245 293.903 258.611C293.879 258.391 293.855 258.172 293.83 258.001C293.781 257.367 293.049 256.244 292.854 257.098C292.683 257.952 292.365 261.465 292.365 261.465C292.341 264.32 294.172 265.491 295.344 264.564C296.516 263.661 299.201 258.806 298.884 257.464Z" fill="#FFB27D"/>
<path d="M688.46 423.536H19.9453C19.4814 423.536 19.0908 423.146 19.0908 422.683V422.121C19.0908 421.658 19.4814 421.268 19.9453 421.268H688.46C688.924 421.268 689.315 421.658 689.315 422.121V422.683C689.315 423.146 688.924 423.536 688.46 423.536Z" fill="#2E3552"/>
</svg>
