<svg width="546" height="335" viewBox="0 0 546 335" fill="none" xmlns="http://www.w3.org/2000/svg">
<path d="M30.5305 335L204.64 334.094L251.042 334.075H266.413L312.911 334.056L525.351 333.998C525.351 333.998 573.949 271.64 522.038 212.423C468.22 151.029 442.063 201.031 425.517 114.597C383.872 -102.934 -27.7755 23.6907 80.1879 208.819C119.078 275.476 3.66007 240.046 30.5305 335Z" fill="white"/>
<path d="M190.694 289.605L189.75 289.084C188.748 288.525 188.382 287.272 188.921 286.27L193.255 278.367C193.814 277.364 195.066 276.998 196.068 277.538L197.416 278.27C197.609 278.386 197.686 278.617 197.57 278.829C197.455 279.022 197.223 279.099 197.012 278.984L195.663 278.251C195.047 277.923 194.276 278.135 193.949 278.752L189.615 286.655C189.287 287.272 189.499 288.043 190.116 288.371L191.06 288.891C191.676 289.219 192.446 289.007 192.774 288.39L195.644 283.147C195.759 282.954 195.991 282.877 196.203 282.993C196.395 283.109 196.472 283.34 196.357 283.552L193.487 288.795C192.967 289.778 191.695 290.164 190.694 289.605Z" fill="#AFCDFB"/>
<path d="M186.687 297.913L184.992 296.988C183.432 296.12 182.893 294.058 183.817 292.381L190.328 280.487C190.443 280.294 190.675 280.217 190.886 280.333C191.079 280.449 191.156 280.68 191.041 280.892L184.53 292.785C183.817 294.077 184.203 295.638 185.378 296.294L187.073 297.219C188.248 297.855 189.769 297.335 190.482 296.043L197.898 282.511C198.611 281.22 198.225 279.658 197.05 279.003C196.858 278.887 196.781 278.656 196.896 278.444C197.012 278.251 197.243 278.174 197.455 278.29C199.015 279.157 199.554 281.22 198.63 282.897L191.214 296.429C190.27 298.106 188.248 298.761 186.687 297.913Z" fill="#AFCDFB"/>
<path opacity="0.6" d="M349.258 245.637H142.096C137.01 245.637 132.869 241.511 132.869 236.403V62.4169C132.869 57.328 136.991 53.1836 142.096 53.1836H349.258C354.343 53.1836 358.485 57.3087 358.485 62.4169V236.423C358.485 241.511 354.363 245.637 349.258 245.637Z" fill="#EBF3FA"/>
<path d="M358.486 74.5428H132.89V60.0857C132.89 56.2883 135.972 53.2041 139.766 53.2041H351.609C355.404 53.2041 358.486 56.2883 358.486 60.0857V74.5428Z" fill="#699DEE"/>
<path d="M141.999 63.728C141.999 62.3209 143.135 61.1836 144.542 61.1836C145.948 61.1836 147.084 62.3209 147.084 63.728C147.084 65.1352 145.948 66.2725 144.542 66.2725C143.155 66.2918 141.999 65.1352 141.999 63.728Z" fill="#DDE7FE"/>
<path d="M152.709 63.728C152.709 62.3209 153.845 61.1836 155.252 61.1836C156.658 61.1836 157.794 62.3209 157.794 63.728C157.794 65.1352 156.658 66.2725 155.252 66.2725C153.865 66.2918 152.709 65.1352 152.709 63.728Z" fill="#DDE7FE"/>
<path d="M163.418 63.728C163.418 62.3209 164.554 61.1836 165.961 61.1836C167.367 61.1836 168.503 62.3209 168.503 63.728C168.503 65.1352 167.367 66.2725 165.961 66.2725C164.574 66.2918 163.418 65.1352 163.418 63.728Z" fill="#DDE7FE"/>
<path opacity="0.5" d="M214.713 91.4854H150.764V155.482H214.713V91.4854Z" fill="#CDE0FB"/>
<path opacity="0.5" d="M282.978 96.2468H232.107C230.778 96.2468 229.699 95.1673 229.699 93.8372C229.699 92.5072 230.778 91.4277 232.107 91.4277H282.978C284.307 91.4277 285.386 92.5072 285.386 93.8372C285.386 95.1673 284.307 96.2468 282.978 96.2468Z" fill="#7C9AF2"/>
<path opacity="0.5" d="M343.807 93.0075H292.936C291.607 93.0075 290.528 91.928 290.528 90.598C290.528 89.2679 291.607 88.1885 292.936 88.1885H343.807C345.136 88.1885 346.215 89.2679 346.215 90.598C346.215 91.928 345.136 93.0075 343.807 93.0075Z" fill="#7C9AF2"/>
<g opacity="0.3">
<path opacity="0.3" d="M293.032 114.867H231.24C230.373 114.867 229.68 114.173 229.68 113.305C229.68 112.438 230.373 111.744 231.24 111.744H293.032C293.899 111.744 294.593 112.438 294.593 113.305C294.612 114.173 293.899 114.867 293.032 114.867Z" fill="#BDD1F9"/>
<path opacity="0.3" d="M316.532 114.867H300.217C299.351 114.867 298.657 114.173 298.657 113.305C298.657 112.438 299.351 111.744 300.217 111.744H316.532C317.399 111.744 318.093 112.438 318.093 113.305C318.093 114.173 317.399 114.867 316.532 114.867Z" fill="#BDD1F9"/>
<path opacity="0.3" d="M254.566 124.601H231.259C230.393 124.601 229.699 123.907 229.699 123.04C229.699 122.172 230.393 121.479 231.259 121.479H254.566C255.433 121.479 256.127 122.172 256.127 123.04C256.127 123.888 255.433 124.601 254.566 124.601Z" fill="#BDD1F9"/>
<path opacity="0.3" d="M292.32 124.601H260.383C259.517 124.601 258.823 123.907 258.823 123.04C258.823 122.172 259.517 121.479 260.383 121.479H292.32C293.187 121.479 293.88 122.172 293.88 123.04C293.899 123.888 293.187 124.601 292.32 124.601Z" fill="#BDD1F9"/>
<path opacity="0.3" d="M316.532 124.601H300.217C299.351 124.601 298.657 123.907 298.657 123.04C298.657 122.172 299.351 121.479 300.217 121.479H316.532C317.399 121.479 318.093 122.172 318.093 123.04C318.093 123.888 317.399 124.601 316.532 124.601Z" fill="#BDD1F9"/>
<path opacity="0.3" d="M262.888 133.006H231.259C230.393 133.006 229.699 132.312 229.699 131.444C229.699 130.577 230.393 129.883 231.259 129.883H262.888C263.754 129.883 264.448 130.577 264.448 131.444C264.448 132.292 263.754 133.006 262.888 133.006Z" fill="#BDD1F9"/>
<path opacity="0.3" d="M323.293 133.006H271.555C270.689 133.006 269.995 132.312 269.995 131.444C269.995 130.577 270.689 129.883 271.555 129.883H323.293C324.16 129.883 324.853 130.577 324.853 131.444C324.853 132.292 324.16 133.006 323.293 133.006Z" fill="#BDD1F9"/>
</g>
<g opacity="0.3">
<path opacity="0.3" d="M293.032 145.767H231.24C230.373 145.767 229.68 145.073 229.68 144.206C229.68 143.338 230.373 142.645 231.24 142.645H293.032C293.899 142.645 294.593 143.338 294.593 144.206C294.612 145.054 293.899 145.767 293.032 145.767Z" fill="#BDD1F9"/>
<path opacity="0.3" d="M316.532 145.767H300.217C299.351 145.767 298.657 145.073 298.657 144.206C298.657 143.338 299.351 142.645 300.217 142.645H316.532C317.399 142.645 318.093 143.338 318.093 144.206C318.093 145.054 317.399 145.767 316.532 145.767Z" fill="#BDD1F9"/>
<path opacity="0.3" d="M254.566 155.482H231.259C230.393 155.482 229.699 154.788 229.699 153.921C229.699 153.053 230.393 152.359 231.259 152.359H254.566C255.433 152.359 256.127 153.053 256.127 153.921C256.127 154.788 255.433 155.482 254.566 155.482Z" fill="#BDD1F9"/>
<path opacity="0.3" d="M292.32 155.482H260.383C259.517 155.482 258.823 154.788 258.823 153.921C258.823 153.053 259.517 152.359 260.383 152.359H292.32C293.187 152.359 293.88 153.053 293.88 153.921C293.899 154.788 293.187 155.482 292.32 155.482Z" fill="#BDD1F9"/>
</g>
<path d="M179.444 101.027H186.051L203.888 141.893H196.356L192.234 132.1H173.049L168.87 141.893H161.569L179.444 101.027ZM189.634 125.778L182.623 109.547L175.669 125.778H189.634Z" fill="#BDD1F9"/>
<path d="M186.495 168.378H150.764V175.279H186.495V168.378Z" fill="#91B5F8"/>
<path d="M186.495 175.278H150.764V182.179H186.495V175.278Z" fill="#699DEE"/>
<path d="M186.495 182.18H150.764V189.081H186.495V182.18Z" fill="#BDD1F9"/>
<path d="M212.807 172.271H193.16C192.332 172.271 191.677 171.597 191.677 170.787C191.677 169.958 192.351 169.303 193.16 169.303H212.807C213.635 169.303 214.29 169.977 214.29 170.787C214.29 171.616 213.635 172.271 212.807 172.271Z" fill="#BDD1F9"/>
<path d="M206.18 177.534H193.139C192.311 177.534 191.656 176.859 191.656 176.05C191.656 175.221 192.33 174.565 193.139 174.565H206.18C207.008 174.565 207.663 175.24 207.663 176.05C207.682 176.859 207.008 177.534 206.18 177.534Z" fill="#BDD1F9"/>
<path d="M186.495 204.058H150.764V218.168H186.495V204.058Z" fill="#AFCDFB"/>
<path d="M186.495 214.679H150.764V224.76H186.495V214.679Z" fill="#699DEE"/>
<path d="M150.764 204.058L163.573 214.833L150.764 224.76V204.058Z" fill="#91B5F8"/>
<path d="M212.807 207.971H193.16C192.332 207.971 191.677 207.297 191.677 206.487C191.677 205.658 192.351 205.003 193.16 205.003H212.807C213.635 205.003 214.29 205.678 214.29 206.487C214.29 207.297 213.635 207.971 212.807 207.971Z" fill="#BDD1F9"/>
<path d="M206.18 213.215H193.139C192.311 213.215 191.656 212.54 191.656 211.73C191.656 210.901 192.33 210.246 193.139 210.246H206.18C207.008 210.246 207.663 210.921 207.663 211.73C207.682 212.559 207.008 213.215 206.18 213.215Z" fill="#BDD1F9"/>
<path d="M360.757 70.6087C360.757 70.6087 361.682 81.7117 359.159 81.5383C356.635 81.3648 351.646 76.4879 341.572 77.2782C331.498 78.0686 319.19 80.2853 311.755 67.1004C304.32 53.9156 321.27 50.1182 321.27 50.1182L360.757 70.6087Z" fill="#233862"/>
<path d="M339.358 69.7992L390.094 73.9821L391.134 71.7075L342.517 35.796L293.399 30.0518L292.455 32.0758L339.358 69.7992Z" fill="#2B478B"/>
<path d="M373.895 108.024C373.587 106.983 372.508 106.366 371.468 106.674C370.428 106.983 369.811 108.062 370.12 109.103C370.409 110.144 371.506 110.761 372.547 110.452C373.587 110.163 374.184 109.065 373.895 108.024Z" fill="#589245"/>
<path d="M372.2 108.563C374.242 108.409 374.704 126.934 374.704 126.934C374.704 126.934 373.375 127.55 372.72 127.416C372.065 127.261 371.737 124.775 371.737 124.775L371.68 127.396C371.68 127.396 369.445 127.473 368.675 126.934C368.675 126.914 368.983 108.814 372.2 108.563Z" fill="#589245"/>
<path d="M372.855 108.987L372.489 68.5268L372.219 68.3148L345.734 48.7109L344.79 50.0024L371.006 69.4135L371.603 108.91L372.855 108.987Z" fill="#589245"/>
<path d="M407.045 299.937H295.614V257.568H407.411C416.445 257.568 423.764 264.893 423.764 273.934V283.186C423.764 292.439 416.291 299.937 407.045 299.937Z" fill="#FCECDB"/>
<path d="M519.361 274.994V281.374C519.361 284.786 518.514 287.967 517.011 290.704C514.006 296.217 508.42 299.937 502.025 299.937H292.185C290.799 299.937 289.681 298.723 289.681 297.238V296.275C289.681 294.79 290.799 293.576 292.185 293.576H420.104C420.798 292.689 421.395 291.725 421.896 290.685C423.09 288.275 423.764 285.519 423.764 282.589V274.493C423.764 273.008 423.591 271.563 423.244 270.175C422.666 267.842 421.645 265.703 420.278 263.891H292.166C290.779 263.891 289.662 262.676 289.662 261.192V260.247C289.662 258.763 290.779 257.549 292.166 257.549H503.066C510.501 257.549 516.761 262.888 518.706 270.175C519.149 271.717 519.361 273.336 519.361 274.994Z" fill="#699DEE"/>
<path d="M518.726 270.195H423.244C422.666 267.863 421.645 265.723 420.278 263.911H292.166C290.779 263.911 289.662 262.697 289.662 261.213V260.268C289.662 258.784 290.779 257.569 292.166 257.569H503.066C510.52 257.569 516.78 262.909 518.726 270.195Z" fill="#548EE2"/>
<path d="M295.614 278.753L311.159 279.466L295.614 279.89V278.753Z" fill="#F4D2B8"/>
<path d="M295.614 285.384L332.578 286.097L295.614 286.54V285.384Z" fill="#F4D2B8"/>
<path d="M279.338 332.803H388.707V299.841H278.355C270.169 299.841 263.523 306.491 263.523 314.683V316.977C263.523 325.709 270.612 332.803 279.338 332.803Z" fill="#589245"/>
<path d="M383.448 332.803H508.112V299.841H383.102C374.761 299.841 368.02 306.607 368.02 314.934V317.344C368.02 325.883 374.915 332.803 383.448 332.803Z" fill="#FCECDB"/>
<path d="M359.776 332.803H512.311C513.582 332.803 514.603 331.781 514.603 330.509V330.162C514.603 328.89 513.582 327.868 512.311 327.868H359.776C358.504 327.868 357.483 328.89 357.483 330.162V330.509C357.483 331.762 358.504 332.803 359.776 332.803Z" fill="#589245"/>
<path d="M359.776 304.776H512.311C513.582 304.776 514.603 303.754 514.603 302.482V302.135C514.603 300.862 513.582 299.841 512.311 299.841H359.776C358.504 299.841 357.483 300.862 357.483 302.135V302.482C357.483 303.735 358.504 304.776 359.776 304.776Z" fill="#589245"/>
<path d="M508.112 316.322L491.123 316.862L508.112 317.209V316.322Z" fill="#F4D2B8"/>
<path d="M508.112 308.728L467.7 309.287L508.112 309.614V308.728Z" fill="#F4D2B8"/>
<path d="M468.124 309.171C468.124 309.171 469.858 310.578 470.435 312.91C470.532 313.315 470.609 313.759 470.609 314.221C470.705 317.305 470.609 324.303 470.609 324.303L475.713 320.794L480.818 324.303V314.819C480.818 313.026 480.375 311.272 479.566 310.135C479.18 309.576 478.699 309.171 478.16 309.171H468.124Z" fill="#699DEE"/>
<path d="M468.124 309.171C468.124 309.171 469.858 310.578 470.435 312.91L480.683 313.045C480.683 313.045 480.278 309.711 478.16 309.171H468.124Z" fill="#568CDB"/>
<path d="M375.146 257.645H267.491V209.224H375.551C385.105 209.224 392.848 216.973 392.848 226.534V239.93C392.848 249.723 384.931 257.645 375.146 257.645Z" fill="#FCECDB"/>
<path d="M392.906 228.019V238.448C392.886 242.9 390.825 246.756 387.782 248.818C386.299 249.84 384.565 250.418 382.735 250.418H264.197C262.81 250.418 261.674 251.767 261.674 253.425V254.659C261.674 256.316 262.791 257.666 264.197 257.666H468.99C474.865 257.666 480.066 254.177 483.206 248.837C485.19 245.464 486.345 241.377 486.345 236.944V228.713C486.345 225.687 485.768 222.815 484.727 220.251C482.089 213.735 476.522 209.244 470.05 209.244H264.197C262.81 209.244 261.674 210.593 261.674 212.251V213.485C261.674 215.143 262.791 216.492 264.197 216.492H383.101C385.952 216.492 388.514 217.938 390.305 220.251C391.904 222.294 392.886 225.012 392.906 228.019Z" fill="#AFCDFB"/>
<path d="M261.674 253.424V254.657C261.674 256.315 262.791 257.664 264.197 257.664H468.991C474.865 257.664 480.066 254.175 483.206 248.836H387.801C386.318 249.858 384.585 250.436 382.755 250.436H264.216C262.81 250.417 261.674 251.747 261.674 253.424Z" fill="#A4C4F4"/>
<path d="M267.491 233.435L282.689 234.263L267.491 234.745V233.435Z" fill="#F4D2B8"/>
<path d="M267.491 222.293L303.646 223.122L267.491 223.604V222.293Z" fill="#F4D2B8"/>
<path d="M303.28 222.948C303.28 222.948 300.891 224.49 300.101 227.015C299.967 227.459 299.87 227.921 299.851 228.423C299.716 231.777 299.851 239.371 299.851 239.371L292.801 235.574L285.771 239.371V229.078C285.771 227.131 286.368 225.242 287.485 224.008C288.024 223.411 288.679 222.948 289.43 222.948H303.28Z" fill="#6FA95C"/>
<path d="M303.281 222.948C303.281 222.948 300.892 224.49 300.102 227.016L285.983 227.17C285.983 227.17 286.542 223.565 289.451 222.968H303.281V222.948Z" fill="#589245"/>
<path d="M123.315 253.366C123.315 253.366 145.389 262.985 149.395 262.812C153.402 262.638 178.076 255.294 178.076 255.294L177.441 259.535C177.441 259.535 158.391 270.503 151.726 271.12C145.177 271.736 122.756 265.24 120.579 263.852C118.403 262.465 117.035 254.754 123.315 253.366Z" fill="#ED985F"/>
<path d="M120.002 217.975C120.002 217.975 111.854 216.433 107.809 219.382C100.47 224.741 100.066 243.246 97.3112 246.003C94.5568 248.759 87.9306 247.583 87.3335 261.848C86.7364 276.112 89.9724 277.307 86.12 283.668C82.2676 290.029 87.7573 296.41 87.7573 296.41C87.7573 296.41 85.5229 292.901 86.4667 290.357C86.4667 290.357 87.3913 295.947 90.9548 297.277C94.5182 298.588 95.0383 299.552 95.5969 301.479C95.5969 301.479 125.915 285.924 125.954 274.898C125.992 263.872 131.925 252.942 129.016 248.162C129.016 248.162 130.307 250.205 130.48 252.479C130.48 252.479 132.233 249.125 129.19 246.003C126.166 242.88 132.753 236.422 131.771 228.943C131.116 223.816 127.514 218.187 120.002 217.975Z" fill="#233862"/>
<path d="M126.011 263.872C124.066 265.221 121.639 266.32 118.596 267.033C107.154 269.674 102.782 259.998 101.125 253.367C102.685 252.48 104.149 252.268 104.997 252.171C105.825 252.075 106.692 252.017 107.404 251.979C108.695 250.996 110.602 246.967 111.026 240.702L111.565 240.837L120.58 243.304C120.58 243.304 120.175 246.177 119.963 248.875C119.809 250.996 119.79 253.02 120.175 253.521C120.888 253.675 121.292 253.771 121.292 253.771C121.446 254.003 124.047 258.301 126.011 263.872Z" fill="#FFB27D"/>
<path d="M120.58 243.323C120.58 243.323 120.156 246.195 119.964 248.894C114.859 248.373 112.49 243.516 111.565 240.855L120.58 243.323Z" fill="#ED985F"/>
<path d="M122.101 246.022C122.101 246.022 109.985 245.348 110.506 237.811C111.045 230.254 109.831 225.088 117.594 225.204C125.357 225.32 126.647 228.307 127.09 230.852C127.533 233.416 125.279 246.003 122.101 246.022Z" fill="#FFB27D"/>
<path d="M127.032 226.63C125.318 224.221 123.873 224.625 123.026 225.242C116.669 221.136 112.027 226.206 112.027 226.206C110.833 231.565 106.711 234.379 106.711 234.379C106.711 234.379 108.81 235.902 113.992 234.957C115.571 234.668 117.035 233.666 118.307 232.413C115.995 235.709 113.029 238.003 113.029 238.003C119.308 235.632 122.352 227.343 122.66 226.476C123.353 227.189 124.702 228.731 125.048 230.177C125.511 232.143 127.514 235.208 128.689 235.169C128.689 235.169 129.613 230.235 127.032 226.63Z" fill="#233862"/>
<path d="M97.6773 288.545C96.5793 282.955 93.0159 260.575 96.5793 253.385C97.8699 250.802 102.897 250.571 108.406 250.802C110.121 251.92 116.67 256.103 119.347 255.583C119.366 255.583 119.424 255.564 119.501 255.544C120.772 255.236 121.254 254.33 120.195 253.578C120.195 253.578 122.93 253.308 126.32 253.944C128.246 254.311 133.408 256.99 133.408 256.99C133.408 256.99 130.808 261.693 126.975 263.313C127.63 269.153 126.647 271.736 120.599 285.229C115.475 296.641 121.292 306.915 121.292 306.915C121.292 306.915 91.1474 331.165 90.9934 318.809C90.8393 309.498 99.0641 295.696 97.6773 288.545Z" fill="#F9DDBF"/>
<path d="M122.776 333.266C124.413 333.073 125.896 332.187 126.802 330.818C126.956 330.606 127.11 330.375 127.264 330.124C130.693 324.92 132.022 309.017 139.746 292.054C141.633 287.929 148.375 287.177 150.205 282.512C150.205 282.512 154.732 267.38 141.537 266.937C128.343 266.494 106.211 309.017 105.845 313.489C105.517 317.787 97.1383 336.158 122.776 333.266Z" fill="#387823"/>
<path d="M175.206 332.919H156.426C156.426 332.919 155.732 329.931 156.965 327.888C158.063 326.076 157.639 325.054 156.83 323.57C157.678 323.917 158.776 324.245 159.989 324.168C160.933 324.11 161.915 323.686 162.782 323.185C163.591 324.11 167.058 328.023 168.137 328.813C169.351 329.681 174.821 329.353 175.206 332.919Z" fill="#233862"/>
<path d="M150.648 271.293C151.784 279.775 156.195 306.549 163.977 319.619C166.481 323.821 157.659 326.192 157.601 326.173C156.407 325.864 154.442 323.975 153.537 323.146C147.219 317.44 134.371 301.287 134.371 288.353C134.371 282.03 134.256 269.983 138.84 266.918C141.672 265.048 150.185 267.939 150.648 271.293Z" fill="#387823"/>
<path d="M111.565 332.919C111.565 332.919 112.259 331.955 113.472 330.104C114.917 327.907 116.516 323.608 118.461 318.076C120.503 312.274 122.911 305.142 125.935 297.721C126.859 295.427 127.861 293.114 128.901 290.8C130.789 286.675 135.951 287.234 137.781 282.57C137.781 282.57 144.966 266.397 131.771 265.954C118.577 265.51 93.4977 309.228 92.0723 313.469C90.4928 318.115 82.8073 337.352 111.565 332.919Z" fill="#589245"/>
<path d="M161.415 332.919H142.635C142.635 332.919 141.941 329.931 143.174 327.888C144.272 326.076 143.848 325.054 143.039 323.57C143.887 323.917 144.985 324.245 146.198 324.168C147.142 324.11 148.124 323.686 148.991 323.185C149.8 324.11 153.267 328.023 154.346 328.813C155.579 329.681 161.049 329.353 161.415 332.919Z" fill="#2B478B"/>
<path d="M118.461 318.077C120.503 312.274 122.911 305.142 125.935 297.721C125.145 292.092 123.45 287.177 120.58 285.191C120.58 285.211 113.646 306.723 118.461 318.077Z" fill="#6FA95C"/>
<path d="M139.669 270.696C140.805 279.177 142.385 306.549 150.186 319.619C152.69 323.821 143.868 326.192 143.81 326.172C142.616 325.864 140.651 323.975 139.746 323.146C133.428 317.44 120.58 301.287 120.58 288.353C120.58 282.03 127.977 270.484 132.58 267.419C135.393 265.549 139.226 267.322 139.669 270.696Z" fill="#589245"/>
<path d="M124.374 241.685C124.374 241.685 123.238 241.222 120.002 241.492C120.002 241.492 120.175 242.745 122.545 242.88C123.893 242.937 124.374 241.685 124.374 241.685Z" fill="white"/>
<path d="M180.446 246.408L176.555 239.372L168.118 262.889L173.088 268.228L180.446 246.408Z" fill="#163560"/>
<path d="M160.106 250.514L152.285 272.894L173.088 268.229L180.446 246.408L160.106 250.514Z" fill="#1C468A"/>
<path d="M152.69 271.776L152.324 271.14L159.74 249.955L160.106 250.514L152.69 271.776Z" fill="#EFDECE"/>
<path d="M159.739 249.955L179.464 246.119L180.446 246.408L160.105 250.514L159.739 249.955Z" fill="#FCECDB"/>
<path d="M180.447 246.408L176.228 239.719L173.551 247.256L179.464 246.118L180.447 246.408Z" fill="#EFDECE"/>
<path d="M166.116 253.751C165.441 253.616 163.978 253.077 162.514 252.672C162.957 252.325 163.438 251.92 163.573 251.477C163.843 250.648 164.016 250.378 163.13 250.648C162.263 250.918 159.201 252.306 159.201 252.306C157.467 252.807 155.868 255.274 155.868 255.274C155.868 255.274 134.353 262.85 131.771 262.965C127.765 263.158 101.106 253.346 101.106 253.346C94.8078 254.734 96.2332 262.464 98.3905 263.852C100.548 265.221 119.733 272.198 131.097 272.333C136.857 272.391 157.794 258.937 157.794 258.937C157.794 258.937 160.241 257.819 162.167 258.165C164.093 258.512 168.543 258.165 169.506 256.585C170.488 255.023 167.252 253.983 166.116 253.751Z" fill="#FFB27D"/>
<path d="M114.859 258.205C114.859 258.205 112.47 265.761 104.284 267.476C104.284 267.476 90.7621 263.313 97.5038 254.099C97.4845 254.099 104.149 249.145 114.859 258.205Z" fill="#F9DDBF"/>
<path d="M180.099 254.33C180.099 254.118 180.08 253.925 180.022 253.713C180.022 253.713 178.096 250.667 177.461 250.532C175.534 250.147 175.534 252.691 175.939 254.33C176.228 255.467 176.941 256.566 177.538 257.144L177.461 259.534C180.716 257.761 180.099 254.33 180.099 254.33Z" fill="#FFB27D"/>
<path d="M67.128 214.466C67.8985 195.421 51.9496 186.979 35.6539 186.979C19.3583 186.979 1.61803 191.2 0.0770739 216.51C-0.905287 232.798 7.7626 242.821 32.7454 242.821C41.1629 242.821 47.7119 241.491 52.7393 239.12L65.2211 250.224L59.0765 234.88C64.5084 229.81 66.8006 222.678 67.128 214.466Z" fill="white"/>
<path d="M23.2687 208.107V212.56H26.1773V208.107H27.3523V218.478H26.1773V213.64H23.2687V218.478H22.0938V208.107H23.2687Z" fill="#91B5F8"/>
<path d="M29.8754 214.852C29.8754 217.146 30.7808 217.628 31.6283 217.628C32.1484 217.628 32.5721 217.512 32.8611 217.358L33.0537 218.226C32.6299 218.438 32.0135 218.573 31.4164 218.573C29.625 218.573 28.7197 217.108 28.7197 214.833C28.7197 212.423 29.7406 210.92 31.243 210.92C32.7455 210.92 33.3619 212.52 33.3619 214.178C33.3619 214.467 33.3426 214.679 33.3233 214.852H29.8754ZM32.2254 213.985C32.2447 212.501 31.6861 211.845 31.1275 211.845C30.3377 211.845 29.9525 212.963 29.914 213.985H32.2254Z" fill="#91B5F8"/>
<path d="M34.6338 207.816H35.8088V218.457H34.6338V207.816Z" fill="#91B5F8"/>
<path d="M37.5615 207.816H38.7365V218.457H37.5615V207.816Z" fill="#91B5F8"/>
<path d="M45.0732 214.756C45.0732 217.628 43.7441 218.611 42.5884 218.611C41.2593 218.611 40.1807 217.397 40.1807 214.775C40.1807 212.076 41.3942 210.92 42.6655 210.92C44.0138 210.92 45.0732 212.154 45.0732 214.756ZM41.3749 214.756C41.3749 215.99 41.5868 217.667 42.6655 217.667C43.6863 217.667 43.8982 215.932 43.8982 214.756C43.8982 213.619 43.6863 211.864 42.6462 211.864C41.5675 211.864 41.3749 213.619 41.3749 214.756Z" fill="#91B5F8"/>
<path d="M389.035 249.163C392.579 255.428 397.067 257.857 397.067 257.857L415.809 257.992C415.79 257.992 386.338 244.383 389.035 249.163Z" fill="#233862"/>
<path d="M403.076 297.508C403.557 298.067 403.615 298.704 403.365 299.359C402.903 300.593 401.419 301.961 399.705 303.33C399.493 303.503 399.281 303.658 399.127 303.812C399.089 303.85 399.031 303.889 398.992 303.927C398.954 303.966 398.915 303.985 398.896 304.024C397.278 305.489 397.894 305.836 394.986 308.804C391.692 312.197 389.438 312.235 388.784 311.927C388.244 311.657 389.361 309.864 390.594 307.84C390.652 307.744 390.71 307.648 390.768 307.551C390.941 307.281 391.095 307.012 391.268 306.742C392.713 304.313 392.366 303.156 392.039 299.513C391.788 296.545 387.551 282.955 387.551 282.955L393.83 281.914C393.83 281.914 395.641 292.728 397.721 294.424C398.838 295.311 400.071 295.33 401.15 296.005C401.227 296.043 401.304 296.101 401.381 296.14C401.978 296.525 402.594 296.949 403.076 297.508Z" fill="#FFB27D"/>
<path d="M403.076 297.508C403.558 298.067 403.615 298.703 403.365 299.359C402.806 300.592 401.362 301.961 399.686 303.31C399.474 303.484 399.281 303.657 399.108 303.811C399.069 303.85 399.012 303.889 398.973 303.927C398.935 303.966 398.896 303.985 398.877 304.023C397.259 305.488 397.875 305.835 394.967 308.804C391.673 312.197 389.419 312.235 388.764 311.927C388.225 311.657 389.342 309.864 390.575 307.84C391.211 307.609 394.177 306.433 396.45 303.58C398.434 301.074 399.782 297.855 401.13 295.985C401.208 296.024 401.285 296.082 401.362 296.12C401.978 296.525 402.594 296.949 403.076 297.508Z" fill="#233862"/>
<path d="M352.494 293.229C352.09 295.157 349.335 294.829 346.253 294.039C343.171 293.268 343.903 294.174 339.512 293.653C335.12 293.133 333.81 291.494 333.675 290.839C333.56 290.261 335.736 290.068 338.067 289.817C338.356 289.779 338.645 289.759 338.953 289.721C341.592 289.412 343.518 287.735 345.926 286.348C348.199 285.037 351.608 279.697 351.608 279.697L357.637 280.218C357.637 280.218 354.44 284.998 353.207 287.08C352.475 288.294 352.514 289.933 352.591 291.186C352.591 291.841 352.629 292.554 352.494 293.229Z" fill="#FFB27D"/>
<path d="M346.253 294.038C343.171 293.267 343.903 294.173 339.512 293.652C335.12 293.132 333.81 291.493 333.675 290.838C333.56 290.26 335.736 290.067 338.067 289.816L338.086 289.855C338.086 289.855 340.706 291.744 344.366 291.86C347.351 291.956 350.51 291.127 352.571 291.166C352.61 291.84 352.648 292.554 352.514 293.228C352.09 295.156 349.335 294.828 346.253 294.038Z" fill="#233862"/>
<path d="M375.84 254.85L381.368 270.059L388.572 289.914C388.572 289.914 390.556 290.126 392.482 289.586C394.235 289.085 396.277 287.774 396.277 287.774C396.277 287.774 394.389 266.512 390.671 254.272C389.708 251.13 388.649 248.585 387.455 247.159C381.58 240.123 375.84 254.85 375.84 254.85Z" fill="#233862"/>
<path d="M381.733 230.812C385.432 229.656 395.949 231.256 406.485 233.395L408.719 229.752L431.564 228.133C431.564 228.133 438.98 244.903 434.781 255.524C434.165 257.086 432.662 257.741 430.601 257.76C430.601 257.76 416.983 257.992 412.572 257.972C401.227 257.895 388.61 249.992 386.973 249.645C384.295 249.086 383.178 254.445 380.462 260.073C377.746 265.702 355.056 284.863 355.056 284.863C355.056 284.863 351.588 284.882 350.163 284.323C348.622 283.725 348.063 282.973 348.063 282.973C348.063 282.973 373.393 233.434 381.733 230.812Z" fill="#2B478B"/>
<path d="M409.086 198.294C417.176 202.824 433.607 212.23 433.703 212.173C433.703 212.173 439.751 214.505 443.199 212.23C448.959 208.471 452.098 198.236 441.678 189.33C436.477 184.897 432.779 183.798 432.259 176.762C431.989 172.946 426.865 160.339 418.197 161.438C417.465 161.534 416.753 161.592 416.021 161.573C415.019 161.534 413.343 161.669 411.629 162.671C406.717 165.582 396.913 196.482 409.086 198.294Z" fill="#233862"/>
<path d="M415.924 194.534C415.886 194.554 419.911 195.961 422.627 194.785C425.17 193.686 427.134 189.523 427.096 189.503C425.94 189.446 424.688 188.424 423.744 181.793L423.244 181.966L414.961 184.877C414.961 184.877 415.539 187.537 415.905 190.062C416.232 192.202 416.386 194.245 415.924 194.534Z" fill="#FFB27D"/>
<path d="M414.961 184.897C414.961 184.897 415.308 186.767 415.808 189.427C420.566 188.598 422.569 184.55 423.244 181.986L414.961 184.897Z" fill="#ED975D"/>
<path d="M413.709 187.518C413.709 187.518 425.035 186.072 424.034 179.037C423.032 172.001 423.822 167.066 416.541 167.683C409.279 168.3 408.258 171.191 408.008 173.62C407.777 176.049 410.743 187.711 413.709 187.518Z" fill="#FFB27D"/>
<path d="M408.45 169.765C408.45 169.765 415.654 176.068 420.566 176.608C425.497 177.148 427.365 175.586 427.365 175.586C427.365 175.586 424.476 173.158 422.762 169.245C422.261 168.088 421.182 167.298 419.93 167.182C416.405 166.854 409.741 166.662 408.45 169.765Z" fill="#233862"/>
<path d="M412.976 169.245C412.976 169.245 410.53 171.577 409.76 173.312C409.009 174.989 408.758 178.998 409.336 180.598C409.336 180.598 405.618 173.235 407.776 169.669C410.087 165.891 412.976 169.245 412.976 169.245Z" fill="#233862"/>
<path d="M406.293 211.151C406.466 234.071 406.254 229.271 408.739 231.468C409.336 231.989 411.031 232.316 413.266 232.49C420.277 233.01 432.624 231.931 433.105 230.639C434.762 226.167 433.625 224.76 435.031 217.879C435.186 217.146 435.359 216.356 435.571 215.488C436.727 210.766 437.844 209.166 433.895 201.552C430.312 194.651 426.595 189.042 426.248 189.234C416.636 194.844 415.904 190.063 415.904 190.063C415.904 190.063 406.196 199.971 406.293 211.151Z" fill="#F9DDBF"/>
<path d="M381.368 270.059L388.572 289.913C388.572 289.913 390.556 290.125 392.482 289.585C394.235 289.084 396.277 287.773 396.277 287.773C396.277 287.773 394.389 266.512 390.672 254.271L381.368 270.059Z" fill="#2B478B"/>
<path d="M415.904 190.082C415.904 190.082 406.061 191.682 404.867 195.923C403.673 200.163 396.7 225.03 396.7 225.03C396.7 225.03 401.689 225.955 404.02 223.661C406.35 221.367 412.206 202.265 412.206 202.265L415.904 190.082Z" fill="#F9DDBF"/>
<path d="M413.266 232.47C420.277 232.991 432.624 231.911 433.105 230.62C434.762 226.148 433.625 224.74 435.032 217.859L431.719 208.298C431.719 208.298 432.2 218.919 429.06 221.695C425.921 224.471 416.193 226.996 414.672 229.328C413.901 230.446 413.42 231.564 413.266 232.47Z" fill="#F2CCAA"/>
<path d="M421.356 228.056C421.356 228.056 414.441 226.456 413.324 227.073C412.207 227.69 409.452 229.907 409.105 230.678C408.759 231.449 411.59 230.099 412.515 229.868C413.112 229.714 414.672 230.273 415.462 230.543C418.717 231.661 420.74 231.102 420.74 231.102L421.356 228.056Z" fill="#FFB27D"/>
<path d="M426.268 189.234C426.268 189.234 435.572 189.87 438.75 194.381C443.238 200.742 452.041 227.767 446.859 231.314C441.023 235.324 420.451 232.182 420.451 232.182C420.451 232.182 419.796 228.963 420.759 227.42C421.722 225.878 437.247 223.488 437.96 222.775C438.673 222.062 429.119 208.742 429.138 206.602C429.138 204.482 426.268 189.234 426.268 189.234Z" fill="#F9DDBF"/>
<path d="M412.958 229.001C412.958 229.001 411.494 230.871 411.012 231.083C410.531 231.295 410.223 231.237 410.223 231.237L411.205 229.483L412.958 229.001Z" fill="#FFB27D"/>
<path d="M413.304 227.073L409.066 229.097C409.066 229.097 409.24 229.386 409.76 229.367C410.28 229.348 411.59 228.885 411.59 228.885L413.304 227.073Z" fill="#FFB27D"/>
<path d="M411.917 234.109L378.536 233.877L368.674 208.818L401.997 209.05L411.917 234.109Z" fill="#589245"/>
<path d="M378.15 232.895L422.241 233.203L422.222 234.186L378.536 233.878L378.15 232.895Z" fill="#589245"/>
<path d="M387.049 221.444C386.799 220.557 387.319 219.863 388.186 219.863C389.072 219.863 389.977 220.596 390.228 221.463C390.478 222.35 389.958 223.044 389.091 223.044C388.205 223.044 387.3 222.331 387.049 221.444Z" fill="white"/>
<path d="M209.075 312.958L209.071 333.14L310.486 333.16L310.49 312.977L209.075 312.958Z" fill="#BDD1F9"/>
<path d="M209.07 333.13L194.161 326.75L185.493 323.03L194.373 319.232L209.07 312.948C209.07 312.948 211.034 317.864 211.054 322.49C211.112 329.738 209.07 333.13 209.07 333.13Z" fill="#FCECDB"/>
<path d="M322.272 319.676V326.056C322.272 329.989 319.094 333.169 315.165 333.15H310.465V312.968H315.569C319.287 312.987 322.272 315.975 322.272 319.676Z" fill="#FCECDB"/>
<path d="M194.373 319.252C194.739 321.295 195.066 324.418 194.161 326.75L185.493 323.03L194.373 319.252Z" fill="#2B478B"/>
<path d="M230.874 207.913C230.874 207.913 232.685 215.797 237.982 215.797C242.528 215.797 248.749 205.522 248.749 205.522L230.874 207.913Z" fill="#589245"/>
<path d="M291.665 324.418L288.256 326.75C288.256 326.75 271.902 309.306 267.953 292.574C267.241 289.586 266.971 286.637 267.26 283.842C267.26 283.842 267.029 283.09 266.605 281.741C266.586 281.683 266.567 281.625 266.547 281.567C266.374 280.989 266.143 280.295 265.892 279.505C265.103 276.98 264.005 273.51 262.772 269.577C259.921 260.518 253.372 240.066 250.579 231.565L270.669 224.298C270.669 224.298 272.942 229.502 276.236 243.651C276.737 245.502 277.238 247.545 277.719 249.762C278.259 252.287 278.759 255.043 279.164 258.012C279.877 263.062 280.339 268.729 280.377 274.956C280.397 277.481 280.32 280.122 280.185 282.82C280.069 284.806 280.377 287.446 280.917 290.473C283.44 304.255 291.665 324.418 291.665 324.418Z" fill="#2B478B"/>
<path d="M302.374 332.822H286.136C286.136 332.822 285.52 330.239 286.599 328.466C287.542 326.904 287.176 326.018 286.483 324.726C287.215 325.035 288.178 325.304 289.218 325.247C290.027 325.208 290.875 324.842 291.626 324.398C292.319 325.189 295.324 328.581 296.249 329.256C297.308 330.027 302.047 329.757 302.374 332.822Z" fill="#233862"/>
<path d="M279.164 258.031L266.547 281.567C266.374 280.989 266.143 280.295 265.892 279.505C265.103 276.98 264.005 273.51 262.772 269.578C259.921 260.518 253.372 240.066 250.579 231.565L270.669 224.298C270.669 224.298 272.942 229.502 276.236 243.651C276.737 245.502 277.238 247.545 277.719 249.762C278.259 252.306 278.759 255.063 279.164 258.031Z" fill="#233862"/>
<path d="M250.251 327.733C250.251 327.733 249.134 330.49 250.194 332.822H259.035C259.035 332.822 259.227 330.721 256.011 328.292C253.584 326.442 250.251 327.733 250.251 327.733Z" fill="#233862"/>
<path d="M259.882 148.061C259.882 147.617 260.113 142.875 267.317 142.451C267.317 142.451 263.773 142.952 263.214 144.533C263.214 144.533 265.584 142.548 267.568 143.126C269.552 143.704 270.784 147.116 270.823 148.253C270.861 149.391 269.86 153.072 268.627 153.4C268.165 153.535 267.606 153.516 267.125 153.439C267.471 153.94 267.799 154.518 268.126 155.154C271.15 160.995 268.55 167.876 266.084 167.298C264.505 166.932 263.561 169.65 263.561 169.65L248.44 156.638C248.421 156.619 253.718 144.957 259.882 148.061Z" fill="#2C3A64"/>
<path d="M250.367 187.577C252.043 188.734 254.143 189.697 256.781 190.314C266.663 192.608 270.457 184.242 271.883 178.498C270.534 177.727 269.263 177.553 268.531 177.476C267.819 177.399 267.067 177.341 266.451 177.303C265.334 176.455 263.677 172.966 263.311 167.568L262.849 167.684L255.048 169.824C255.048 169.824 255.414 172.31 255.587 174.643C255.722 176.474 255.741 178.228 255.395 178.652C254.778 178.787 254.412 178.864 254.412 178.864C254.316 179.038 252.062 182.758 250.367 187.577Z" fill="#FFB27D"/>
<path d="M255.067 169.804C255.067 169.804 255.433 172.29 255.607 174.623C260.018 174.179 262.079 169.977 262.868 167.664L255.067 169.804Z" fill="#ED985F"/>
<path d="M254.97 173.525C254.97 173.525 265.14 170.903 263.407 164.6C261.673 158.296 261.827 153.709 255.278 155.097C248.71 156.504 248.113 159.26 248.17 161.496C248.247 163.752 252.273 174.045 254.97 173.525Z" fill="#FFB27D"/>
<path d="M247.516 157.93C248.556 155.598 249.847 155.694 250.675 156.08C255.375 151.511 260.171 155.039 260.171 155.039C262.097 159.376 266.065 161.072 266.065 161.072C266.065 161.072 264.524 162.711 259.978 162.788C258.592 162.807 257.166 162.21 255.876 161.361C258.38 163.771 261.308 165.217 261.308 165.217C255.587 164.272 251.599 157.757 251.195 157.063C250.733 157.795 249.847 159.337 249.789 160.61C249.731 162.364 250.405 165.718 249.404 165.872C249.423 165.872 245.956 161.419 247.516 157.93Z" fill="#2C3A64"/>
<path d="M252.042 178.343C252.042 178.343 269.108 174.199 276.544 180.329L272.826 232.104L239.426 224.028C239.426 224.028 240.37 220.751 246.765 212.038C253.179 203.325 250.405 190.545 252.042 178.343Z" fill="#FFB27D"/>
<path d="M262.001 226.341C262.001 226.341 261.982 226.514 261.944 226.842C261.924 226.977 261.905 227.15 261.886 227.362C261.751 228.712 261.462 231.275 261.115 234.629C260.191 243.419 258.765 257.51 257.783 268.652C257.013 277.365 256.531 284.246 256.801 285.345C257.59 288.68 256.801 328.466 256.801 328.466C253.969 329.834 249.654 328.466 249.654 328.466C249.654 328.466 242.104 292.612 243.144 287.619C244.203 282.627 242.431 278.386 242.431 278.386C236.556 251.033 237.211 235.863 238.367 228.615C238.714 226.495 239.099 225.068 239.369 224.182C239.6 223.43 239.773 223.083 239.773 223.083C252.736 219.613 262.001 226.341 262.001 226.341Z" fill="#2B478B"/>
<path d="M278.836 195.095C278.008 201.321 274.714 208.954 273.539 213.06C273.539 213.06 275.504 227.305 273.636 231.218C273.424 231.662 273.154 231.97 272.827 232.124C265.873 235.151 238.752 232.221 237.597 223.45C237.173 220.269 247.921 209.089 248.557 207.721C248.826 207.162 249.096 205.33 247.825 201.571C246.033 207.084 236.19 205.504 236.19 205.504C237.346 203.518 240.235 189.813 243.452 183.625C245.879 178.98 252.332 178.305 252.332 178.305C252.332 178.305 255.029 182.565 261.52 181.968C268.03 181.37 269.205 177.38 269.205 177.38C269.205 177.38 274.965 178.151 276.756 179.577C277.064 179.809 279.934 186.922 278.836 195.095Z" fill="#589245"/>
<path d="M273.539 213.04C273.539 213.04 275.504 227.285 273.636 231.198C268.57 228.654 264.563 221.753 265.488 214.081C266.162 208.414 267.183 207.103 270.226 203.865C272.461 201.475 277.604 201.34 277.199 202.477C276.005 205.87 274.175 210.881 273.539 213.04Z" fill="#6FA95C"/>
<path d="M252.37 196.193L264.004 214.872H244.222L233.127 196.598L252.37 196.193Z" fill="#1C468A"/>
<path d="M263.388 213.928L263.6 213.272L252.582 195.615L252.37 196.194L263.388 213.928Z" fill="#EFDECE"/>
<path d="M252.582 195.615L233.955 196.136L233.127 196.598L252.37 196.194L252.582 195.615Z" fill="#FCECDB"/>
<path d="M233.128 196.598L222.688 190.95L234.861 210.091L244.222 214.872L233.128 196.598Z" fill="#163560"/>
<path d="M288.467 209.687C287.35 210.207 284.479 213.581 283.439 213.927C278.836 215.47 259.188 211.364 259.188 211.364L259.805 207.913C259.805 207.913 279.067 208.434 281.186 207.855C281.59 207.74 283.67 204.482 284.46 204.02L288.467 209.687Z" fill="#FFB27D"/>
<path d="M259.805 207.913C259.805 207.913 257.474 206.024 255.914 206.448C254.335 206.872 252.042 208.857 251.176 209.339C250.309 209.802 247.978 211.498 249.172 212.52C250.347 213.541 254.026 212.655 255.49 211.884C256.954 211.113 259.208 211.363 259.208 211.363L259.805 207.913Z" fill="#FFB27D"/>
<path d="M256.357 206.39C256.357 206.39 253.525 206.062 252.755 206.062C251.984 206.082 252.196 206.255 252.62 206.853C253.044 207.45 254.508 207.682 254.585 207.894C254.662 208.106 256.357 206.39 256.357 206.39Z" fill="#FFB27D"/>
<path d="M269.224 177.36C269.224 177.36 277.603 178.363 279.895 181.948C282.804 186.497 289.7 204.598 289.468 209.147C289.468 209.147 284.441 217.705 267.182 216.337C267.182 216.337 265.391 209.995 269.012 207.894C269.012 207.894 277.873 206.313 278.894 205.426L271.67 192.28L269.224 177.36Z" fill="#589245"/>
<path d="M235.824 203.421C235.573 202.361 233.262 203.016 232.491 203.633C232.299 203.787 232.106 204.038 231.894 204.327C231.875 204.154 231.856 203.98 231.837 203.845C231.798 203.344 231.22 202.457 231.066 203.132C230.931 203.807 230.681 206.582 230.681 206.582C230.662 208.838 232.106 209.763 233.031 209.03C233.955 208.317 236.074 204.481 235.824 203.421Z" fill="#FFB27D"/>
<path d="M543.207 334.635H15.7367C15.3707 334.635 15.0625 334.326 15.0625 333.96V333.516C15.0625 333.15 15.3707 332.842 15.7367 332.842H543.207C543.573 332.842 543.881 333.15 543.881 333.516V333.96C543.881 334.326 543.573 334.635 543.207 334.635Z" fill="#2E3552"/>
</svg>
